<?xml version="1.0" encoding="UTF-8" standalone="no"?>
<!DOCTYPE svg PUBLIC "-//W3C//DTD SVG 1.1//EN" "http://www.w3.org/Graphics/SVG/1.1/DTD/svg11.dtd">
<svg width="100%" height="100%" viewBox="0 0 665 948" version="1.1" xmlns="http://www.w3.org/2000/svg" xmlns:xlink="http://www.w3.org/1999/xlink" xml:space="preserve" xmlns:serif="http://www.serif.com/" style="fill-rule:evenodd;clip-rule:evenodd;stroke-linejoin:round;stroke-miterlimit:2;">
    <g id="Artboard1" transform="matrix(1,0,0,1,-341,-1)">
        <rect x="341" y="1" width="665" height="948" style="fill:none;"/>
        <g transform="matrix(1.46341,0,0,3.09677,-147.366,-1150.42)">
            <path d="M353.23,493.552L352.167,495.812L350.117,502.594L346.7,519.708L345.333,550.385L342.6,550.385L338.5,547.156L335.083,541.667L340.55,533.271L340.55,520.031L341.917,517.771L341.917,509.375L343.967,504.531L343.283,498.073L346.017,492.906L346.045,492.906L346.7,477.729L350.8,460.292L356.267,444.792L360.367,436.073L374.717,417.99L386.333,406.687L401.367,396.354L423.233,388.927L448.517,380.854L487.467,371.812L661.717,371.812L667.867,374.719L686.317,378.271L699.3,380.854L727.317,390.219L733.467,392.802L744.491,396.354L766.95,403.781L779.25,414.76L787.45,419.281L787.45,505.5L764.217,484.833L762.85,460.292L747.133,436.073L717.75,429.292L687.683,430.583L608.417,430.583L597.483,433.49L573.567,436.073L559.217,437.365L554.433,436.073L546.233,435.104L538.033,433.49L533.25,428.969L524.367,427.677L494.3,423.479L484.733,422.833L482,420.25L480.633,424.771L477.217,425.094L473.964,423.719L471.75,422.833L468.759,423.781L468.759,424.771L467.65,426.062L465.193,424.837L451.25,425.094L444.476,424.796L437.789,425.405L435.533,426.708L428.439,427.143L425.967,426.062L414.35,427.031L411.108,428.275L406.833,429.937L400,429.292L389.067,434.781L378.133,447.698L374.717,453.833L365.15,468.042L361.05,483.219L356.267,488.062L353.533,493.552L353.23,493.552Z"/>
        </g>
        <path d="M839,789L827,797L795,803L742.87,803.314L706.255,798.821L683.485,796.486L654,797L638.132,795L633,795L633,791L646,789L659,788L664,783L678,783L693,785L708,791L743.768,796L758,790L766,777L785,767L824,771L830,778L839,782L839,789Z"/>
        <path d="M621,700L608,690L603,682L589,675L574,670L565,665L560,656L560,645L574,635L592,635L602,641L610.909,649L653.027,649L675,633L684,629L701,629L705,634L722,648L728,658L739,662L739,678L728,681L720,681L709,683L697,687L681,693L666,693L662,700L621,700Z"/>
        <path d="M940,485L911,508L898,499L900.683,463.581L873.736,433L826,440L751,469L741,479L710,467L717,440L751,411L853,386L919,411L947,451L940,485Z"/>
        <path d="M605,431L617.331,484.645L560,484.645L553,459L535,450L495.788,442.747L465,434L409.697,475.381L391,471L391,428L432,377L482,377L605,431Z"/>
        <path d="M520,457L534,460L545,467L545,478L540,492L516,497L495,495L487,489L487,466L491,461L500,458L520,457Z"/>
        <path d="M819,464L836,467L848,474L848,487L842,500L833,510L816,510L800,509L791.007,496L791.007,473L800,467L819,464Z"/>
        <g transform="matrix(2.55556,0,0,1.86667,-784,-665.667)">
            <path d="M495.391,776.071L495.391,784.107L489.913,790L488.739,790.536L488.739,784.107L489.13,781.735L490.696,774.464L493.435,770.359L493.435,764.286L496.565,757.321L503.217,757.321L513,760L516.13,770.179L533.739,770.179L533.739,770.185L537.82,771.093L545.478,777.143L545.37,778.822L533.01,776.071L516.13,776.071L513,775L495.391,776.071Z"/>
        </g>
        <g transform="matrix(0.995753,0.0920617,-0.0920617,0.995753,79.4095,-55.9079)">
            <path d="M721.136,874.232L710.971,871.154L690.636,881.068L677.146,866.973L669.524,869.965L649.609,871.806L637.528,858L633.526,858L620.548,872.484L604.524,872.962L595.729,864.736L580.166,870.192L565.062,880.627L542.017,848.613L565.99,836.354L624.515,840L700,840L705.415,842.544L742.992,839.07L744.833,858.985L741.403,865.328L733.085,873.127L721.136,874.232Z"/>
        </g>
        <g transform="matrix(1.28,0,0,1,-115.88,-2)">
            <path d="M501.379,459L481.938,459L471,466.201L471,488L451.469,498L439.75,498L421,488L410.844,478L430.896,458L440.144,458L449.125,451L470.219,443L482.719,446L498.128,450.931L511.732,454.948L521.781,461L527.25,481L517.094,481L516.313,469L510.844,463L501.379,459Z"/>
        </g>
        <g transform="matrix(1.13636,0,0,1,-122.591,0)">
            <path d="M769.64,469L812.194,452.051L855,459L886.446,473L899,473L899,497L898.12,506L882.28,514L855,497L855,474.032L834.76,463L811.88,465L798.68,479L795.16,482L788.12,485L779.32,493L760.84,493L760.84,489L767,485L773.16,482L775.8,482L776.165,478L775.394,475L773.16,475L771.4,481L761.72,480L769.64,469Z"/>
        </g>
    </g>
</svg>
