<svg width="990" height="629" viewBox="0 0 990 629" fill="none" xmlns="http://www.w3.org/2000/svg">
<path d="M57 5.85821L56.2373 5.2114L57 5.85821ZM59 3.5H60C60 3.08056 59.7383 2.7057 59.3445 2.56121C58.9507 2.41672 58.5086 2.53331 58.2373 2.85319L59 3.5ZM27.1962 41L27.9589 41.6468L27.1962 41ZM25.5 43L24.7373 42.3532C24.4854 42.6503 24.4289 43.0667 24.5926 43.4202C24.7563 43.7737 25.1104 44 25.5 44V43ZM59 43V44C59.5523 44 60 43.5523 60 43H59ZM26 45V44C25.4477 44 25 44.4477 25 45H26ZM24 43V42C23.4477 42 23 42.4477 23 43H24ZM24.5738 43V44C24.915 44 25.2327 43.826 25.4165 43.5384C25.6002 43.2508 25.6246 42.8894 25.4812 42.5798L24.5738 43ZM23.9747 41.7064L23.212 41.0596C22.9601 41.3567 22.9036 41.7731 23.0673 42.1266L23.9747 41.7064ZM56.8016 3L57.5643 3.64681C57.8163 3.34969 57.8728 2.93328 57.709 2.57977C57.5453 2.22625 57.1912 2 56.8016 2V3ZM3 3V2C2.44772 2 2 2.44772 2 3H3ZM3 59H2C2 59.5523 2.44772 60 3 60V59ZM1 61H0C0 61.5523 0.447715 62 1 62L1 61ZM1 1V0C0.447715 0 0 0.447715 0 1L1 1ZM61 1H62C62 0.447715 61.5523 0 61 0V1ZM59 59V60C59.5523 60 60 59.5523 60 59H59ZM24 103H23C23 103.552 23.4477 104 24 104V103ZM84 103V104C84.5523 104 85 103.552 85 103H84ZM84 43H85C85 42.4477 84.5523 42 84 42V43ZM67.9966 101L67.5425 100.109C67.1306 100.319 66.9163 100.784 67.0242 101.233C67.1322 101.683 67.5342 102 67.9966 102V101ZM74 101V102C74.5523 102 75 101.552 75 101H74ZM74 91H75C75 90.4477 74.5523 90 74 90V91ZM71 91H70C70 91.5523 70.4477 92 71 92V91ZM71 89V88C70.4477 88 70 88.4477 70 89H71ZM74 89V90C74.5523 90 75 89.5523 75 89H74ZM74.8613 82.3906L75.416 83.2227L75.416 83.2226L74.8613 82.3906ZM75.5405 81.9378L74.9858 81.1058L75.5405 81.9378ZM76.781 81.424L76.9771 82.4046H76.9771L76.781 81.424ZM78.2243 81.1353L78.0282 80.1547H78.0282L78.2243 81.1353ZM82 81.4296L81.6543 82.368C81.9611 82.481 82.3038 82.4369 82.572 82.2499C82.8402 82.0629 83 81.7566 83 81.4296H82ZM82 45H83C83 44.4477 82.5523 44 82 44V45ZM61 61V62C61.5523 62 62 61.5523 62 61H61ZM60.4262 61V60C60.085 60 59.7673 60.174 59.5835 60.4616C59.3998 60.7492 59.3754 61.1106 59.5188 61.4202L60.4262 61ZM61.0253 62.2936L61.788 62.9404C62.0399 62.6433 62.0964 62.2269 61.9327 61.8734L61.0253 62.2936ZM28.1984 101L27.4357 100.353C27.1837 100.65 27.1272 101.067 27.291 101.42C27.4547 101.774 27.8088 102 28.1984 102V101ZM45 101V102C45.5523 102 46 101.552 46 101H45ZM45 83L44.4453 82.168C44.1671 82.3534 44 82.6656 44 83H45ZM48 81H49C49 80.6312 48.797 80.2923 48.4719 80.1183C48.1467 79.9443 47.7522 79.9634 47.4453 80.168L48 81ZM48 89.5568H47C47 89.9314 47.2093 90.2746 47.5424 90.446C47.8755 90.6174 48.2764 90.5883 48.5812 90.3705L48 89.5568ZM49.0757 88.7885L48.4944 87.9747L49.0757 88.7885ZM51.0906 87.6867L50.7192 86.7583H50.7192L51.0906 87.6867ZM52.0289 87.3114L51.6575 86.3829L52.0289 87.3114ZM54 87V88H54L54 87ZM58 91H59H58ZM58 101H57C57 101.552 57.4477 102 58 102V101ZM60 101V102C60.5523 102 61 101.552 61 101H60ZM60 99.5V98.5C59.4477 98.5 59 98.9477 59 99.5H60ZM67.5991 98.8987L67.0445 98.0667L67.0444 98.0667L67.5991 98.8987ZM67.8987 98.5991L67.0667 98.0444L67.0667 98.0445L67.8987 98.5991ZM67.8987 97.4009L67.0667 97.9555V97.9556L67.8987 97.4009ZM67.7973 97.2487L68.6293 96.694L68.6293 96.694L67.7973 97.2487ZM65.3 95.397L65.6714 94.4685L65.3 95.397ZM64.1286 94.9285L63.7572 95.8569L63.7572 95.8569L64.1286 94.9285ZM64.09 94.913L63.6428 95.8074C63.6676 95.8198 63.6928 95.8312 63.7186 95.8415L64.09 94.913ZM64.0528 94.8944L64.5 94L64.0528 94.8944ZM62.121 93.9285L62.5682 93.0341V93.0341L62.121 93.9285ZM60.1736 91.6832L61.1223 91.367L60.1736 91.6832ZM61.3716 87.4719L62.0118 88.2401H62.0118L61.3716 87.4719ZM61.82 87.0983L61.1798 86.33L61.1798 86.3301L61.82 87.0983ZM67.8303 86.4726L68.2473 85.5637H68.2473L67.8303 86.4726ZM69.4925 88.7297L70.4909 88.6732L70.4909 88.6732L69.4925 88.7297ZM69.5 89V90C70.0523 90 70.5 89.5523 70.5 89H69.5ZM67.5 89H66.5C66.5 89.5523 66.9477 90 67.5 90V89ZM67.4957 88.8429L66.4973 88.8994L66.4973 88.8996L67.4957 88.8429ZM66.9963 88.2904L67.4133 87.3815L67.4133 87.3815L66.9963 88.2904ZM63.1004 88.6347L63.7406 89.4029H63.7406L63.1004 88.6347ZM62.652 89.0084L62.0118 88.2401L62.0118 88.2401L62.652 89.0084ZM62.071 91.0507L61.1223 91.367H61.1223L62.071 91.0507ZM63.0154 92.1397L62.5682 93.0341H62.5682L63.0154 92.1397ZM64.91 93.087L64.4628 93.9814C64.4876 93.9938 64.5129 94.0051 64.5386 94.0154L64.91 93.087ZM66.0427 93.5401L65.6713 94.4685L65.6714 94.4686L66.0427 93.5401ZM68.719 95.3048L69.4261 94.5976H69.4261L68.719 95.3048ZM69.4614 96.1393L68.6293 96.694L69.4614 96.1393ZM69.5628 96.2915L70.3949 95.7367V95.7367L69.5628 96.2915ZM68.458 100.73L67.9033 99.8978H67.9033L68.458 100.73ZM82 83.618H83C83 83.2393 82.786 82.893 82.4472 82.7236L82 83.618ZM81.813 83.5246L81.3658 84.419L81.3658 84.419L81.813 83.5246ZM82 89V90C82.5523 90 83 89.5523 83 89H82ZM76 89H75C75 89.5523 75.4477 90 76 90V89ZM76 84.0352L75.4453 83.2031C75.1671 83.3886 75 83.7008 75 84.0352H76ZM76.6499 83.6019L76.0952 82.7699L76.0952 82.7699L76.6499 83.6019ZM77.1732 83.3852L76.9771 82.4046L77.1732 83.3852ZM78.6166 83.0965L78.8127 84.0771L78.8127 84.0771L78.6166 83.0965ZM54 89V88H54L54 89ZM56 91H57H56ZM53.6459 89V90H53.646L53.6459 89ZM52.7717 89.1684L52.4003 88.2399L52.4003 88.2399L52.7717 89.1684ZM51.8333 89.5437L51.462 88.6152H51.462L51.8333 89.5437ZM50.2382 90.4159L49.6569 89.6022L50.2382 90.4159ZM48 92.0146L47.4188 91.2009C47.156 91.3886 47 91.6917 47 92.0146H48ZM48 101H47C47 101.552 47.4477 102 48 102V101ZM56 101V102C56.5523 102 57 101.552 57 101H56ZM76 91V90C75.4477 90 75 90.4477 75 91H76ZM76 101H75C75 101.552 75.4477 102 76 102V101ZM82 91H83C83 90.4477 82.5523 90 82 90V91ZM82 101V102C82.5523 102 83 101.552 83 101H82ZM59.5 61L60.2627 61.6468C60.5146 61.3497 60.5711 60.9333 60.4074 60.5798C60.2437 60.2263 59.8896 60 59.5 60V61ZM57.8038 63L58.5665 63.6468L57.8038 63ZM28 98.1418L28.7627 98.7886L28 98.1418ZM26 100.5H25C25 100.919 25.2617 101.294 25.6555 101.439C26.0493 101.583 26.4914 101.467 26.7627 101.147L26 100.5ZM26 61V60C25.4477 60 25 60.4477 25 61H26ZM57.7627 6.50502L59.7627 4.14681L58.2373 2.85319L56.2373 5.2114L57.7627 6.50502ZM27.9589 41.6468L57.7627 6.50502L56.2373 5.2114L26.4335 40.3532L27.9589 41.6468ZM26.2627 43.6468L27.9589 41.6468L26.4335 40.3532L24.7373 42.3532L26.2627 43.6468ZM26 42H25.5V44H26V42ZM28.1224 42H26V44H28.1224V42ZM57 42H28.1224V44H57V42ZM59 42H57V44H59V42ZM58 41V43H60V41H58ZM58 6.59211V41H60V6.59211H58ZM58 3.5V6.59211H60V3.5H58ZM59.7071 45.7071L61.7071 43.7071L60.2929 42.2929L58.2929 44.2929L59.7071 45.7071ZM59 44H26V46H59V44ZM25 45V59H27V45H25ZM24 60H26V58H24V60ZM25 59V45H23V59H25ZM25 45V43H23V45H25ZM24 44H24.5738V42H24V44ZM25.4812 42.5798L24.8821 41.2862L23.0673 42.1266L23.6664 43.4202L25.4812 42.5798ZM24.7373 42.3532L57.5643 3.64681L56.039 2.35319L23.212 41.0596L24.7373 42.3532ZM56.8016 2H3V4H56.8016V2ZM2 3V59H4V3H2ZM3 60H24V58H3V60ZM25 61V59H23V61H25ZM3 62H24V60H3V62ZM1 62H3V60H1V62ZM0 59V61H2V59H0ZM0 3V59H2V3H0ZM0 1V3H2V1H0ZM3 0H1V2H3V0ZM59 0H3V2H59V0ZM61 0H59V2H61V0ZM62 3V1H60V3H62ZM62 3.5V3H60V3.5H62ZM62 43V3.5H60V43H62ZM61 44H59V46H61V44ZM60 59V45H58V59H60ZM26 60H59V58H26V60ZM25.2929 58.2929L23.2929 60.2929L24.7071 61.7071L26.7071 59.7071L25.2929 58.2929ZM23 61V100.5H25V61H23ZM23 100.5V101H25V100.5H23ZM23 101V103H25V101H23ZM24 104H26V102H24V104ZM26 104H82V102H26V104ZM82 104H84V102H82V104ZM85 103V101H83V103H85ZM85 101V45H83V101H85ZM85 45V43H83V45H85ZM84 42H82V44H84V42ZM82 42H61V44H82V42ZM60 43V45H62V43H60ZM67.9966 102H74V100H67.9966V102ZM75 101V91H73V101H75ZM74 90H71V92H74V90ZM72 91V89H70V91H72ZM71 90H74V88H71V90ZM75 89V84H73V89H75ZM75 84C75 83.6876 75.1561 83.3959 75.416 83.2227L74.3066 81.5585C73.4903 82.1027 73 83.0189 73 84H75ZM75.416 83.2226L76.0952 82.7699L74.9858 81.1058L74.3066 81.5586L75.416 83.2226ZM76.0952 82.7699C76.3625 82.5917 76.6621 82.4676 76.9771 82.4046L76.5849 80.4434C76.0137 80.5577 75.4704 80.7827 74.9858 81.1058L76.0952 82.7699ZM76.9771 82.4046L78.4205 82.1159L78.0282 80.1547L76.5848 80.4434L76.9771 82.4046ZM78.4205 82.1159C78.8059 82.0388 79.198 82 79.591 82V80C79.0663 80 78.5428 80.0518 78.0282 80.1547L78.4205 82.1159ZM79.591 82C80.2968 82 80.9952 82.1252 81.6543 82.368L82.3457 80.4913C81.4658 80.1671 80.5333 80 79.591 80V82ZM83 81.4296V45H81V81.4296H83ZM82 44H61V46H82V44ZM60 45V59H62V45H60ZM60 59V61H62V59H60ZM61 60H60.4262V62H61V60ZM59.5188 61.4202L60.1179 62.7138L61.9327 61.8734L61.3336 60.5798L59.5188 61.4202ZM60.2627 61.6468L27.4357 100.353L28.961 101.647L61.788 62.9404L60.2627 61.6468ZM28.1984 102H45V100H28.1984V102ZM46 101V83H44V101H46ZM45.5547 83.832L48.5547 81.832L47.4453 80.168L44.4453 82.168L45.5547 83.832ZM47 81V83H49V81H47ZM47 83V89.5568H49V83H47ZM48.5812 90.3705L49.6569 89.6022L48.4944 87.9747L47.4188 88.7431L48.5812 90.3705ZM49.6569 89.6022C50.2169 89.2022 50.823 88.8708 51.462 88.6152L50.7192 86.7583C49.9316 87.0733 49.1847 87.4817 48.4944 87.9747L49.6569 89.6022ZM51.462 88.6152L52.4003 88.2399L51.6575 86.3829L50.7192 86.7583L51.462 88.6152ZM52.4003 88.2399C52.7964 88.0814 53.2192 88 53.6459 88V86C52.9648 86 52.2899 86.13 51.6575 86.3829L52.4003 88.2399ZM53.6459 88H54V86H53.6459V88ZM54 88C55.6568 88 57 89.3431 57 91H59C59 88.2386 56.7614 86 54 86L54 88ZM57 91V101H59V91H57ZM58 102H60V100H58V102ZM61 101V99.5H59V101H61ZM60 100.5H65.9144V98.5H60V100.5ZM65.9144 100.5C66.6223 100.5 67.3143 100.29 67.9033 99.8978L66.7939 98.2337C66.5334 98.4073 66.2274 98.5 65.9144 98.5V100.5ZM67.9033 99.8978L68.1538 99.7308L67.0444 98.0667L66.7939 98.2337L67.9033 99.8978ZM68.1538 99.7308C68.3823 99.5784 68.5784 99.3823 68.7308 99.1538L67.0667 98.0445C67.0608 98.0533 67.0533 98.0608 67.0445 98.0667L68.1538 99.7308ZM68.7308 99.1538C69.1966 98.4551 69.1966 97.5449 68.7308 96.8462L67.0667 97.9556C67.0846 97.9825 67.0846 98.0175 67.0667 98.0444L68.7308 99.1538ZM68.7308 96.8462L68.6293 96.694L66.9652 97.8034L67.0667 97.9555L68.7308 96.8462ZM68.6293 96.694C68.5433 96.565 68.4448 96.4448 68.3351 96.3351L66.9209 97.7494C66.9374 97.7659 66.9523 97.784 66.9652 97.8034L68.6293 96.694ZM68.3351 96.3351L68.0119 96.0119L66.5976 97.4261L66.9209 97.7494L68.3351 96.3351ZM68.0119 96.0119C67.3442 95.3443 66.548 94.8192 65.6714 94.4685L64.9286 96.3255C65.5537 96.5756 66.1216 96.95 66.5976 97.4261L68.0119 96.0119ZM65.6714 94.4685L64.5 94L63.7572 95.8569L64.9286 96.3255L65.6714 94.4685ZM64.5 94L64.4614 93.9846L63.7186 95.8415L63.7572 95.8569L64.5 94ZM64.5372 94.0186L64.5 94L63.6056 95.7888L63.6428 95.8074L64.5372 94.0186ZM64.5 94L62.5682 93.0341L61.6738 94.823L63.6056 95.7888L64.5 94ZM62.5682 93.0341C61.8843 92.6921 61.3641 92.0924 61.1223 91.367L59.225 91.9994C59.6345 93.2281 60.5154 94.2438 61.6738 94.823L62.5682 93.0341ZM61.1223 91.367C60.747 90.241 61.1 89 62.0118 88.2401L60.7315 86.7037C59.1872 87.9906 58.5893 90.0924 59.225 91.9994L61.1223 91.367ZM62.0118 88.2401L62.4602 87.8665L61.1798 86.3301L60.7315 86.7037L62.0118 88.2401ZM62.4602 87.8665C63.1321 87.3066 63.9789 87 64.8535 87V85C63.5111 85 62.2111 85.4706 61.1798 86.33L62.4602 87.8665ZM64.8535 87H65.3656V85H64.8535V87ZM65.3656 87C66.0489 87 66.8117 87.1055 67.4133 87.3815L68.2473 85.5637C67.2869 85.123 66.2063 85 65.3656 85V87ZM67.4133 87.3815C68.0207 87.6601 68.4557 88.1087 68.4941 88.7863L70.4909 88.6732C70.3955 86.9903 69.246 86.0219 68.2473 85.5637L67.4133 87.3815ZM68.4941 88.7862C68.498 88.8548 68.5 88.926 68.5 89H70.5C70.5 88.8894 70.497 88.7805 70.4909 88.6732L68.4941 88.7862ZM69.5 88H67.5V90H69.5V88ZM68.5 89C68.5 88.926 68.498 88.8548 68.4941 88.7862L66.4973 88.8996C66.499 88.9291 66.5 88.9625 66.5 89H68.5ZM68.4941 88.7863C68.4796 88.5314 68.4017 88.2283 68.1739 87.9428C67.9673 87.6838 67.6928 87.5097 67.4133 87.3815L66.5793 89.1993C66.7001 89.2547 66.6701 89.2648 66.6105 89.19C66.5775 89.1488 66.5467 89.0953 66.5251 89.0333C66.5042 88.9734 66.4987 88.9247 66.4973 88.8994L68.4941 88.7863ZM67.4133 87.3815C66.8117 87.1055 66.0489 87 65.3656 87V89C65.8917 89 66.3366 89.0879 66.5794 89.1993L67.4133 87.3815ZM65.3656 87H64.8535V89H65.3656V87ZM64.8535 87C63.9789 87 63.1321 87.3066 62.4602 87.8665L63.7406 89.4029C64.053 89.1426 64.4468 89 64.8535 89V87ZM62.4602 87.8665L62.0118 88.2401L63.2922 89.7766L63.7406 89.4029L62.4602 87.8665ZM62.0118 88.2401C61.1 89 60.747 90.241 61.1223 91.367L63.0197 90.7345C62.9047 90.3895 63.0129 90.0094 63.2922 89.7766L62.0118 88.2401ZM61.1223 91.367C61.3641 92.0924 61.8843 92.6921 62.5682 93.0341L63.4627 91.2453C63.2531 91.1405 63.0938 90.9568 63.0197 90.7345L61.1223 91.367ZM62.5682 93.0341L64.4628 93.9814L65.3572 92.1925L63.4627 91.2453L62.5682 93.0341ZM64.5386 94.0154L65.6713 94.4685L66.4141 92.6116L65.2814 92.1585L64.5386 94.0154ZM65.6714 94.4686C66.548 94.8192 67.3442 95.3442 68.0119 96.0119L69.4261 94.5976C68.5669 93.7385 67.5422 93.0628 66.4141 92.6116L65.6714 94.4686ZM68.0119 96.0119L68.3351 96.3351L69.7494 94.9209L69.4261 94.5976L68.0119 96.0119ZM68.3351 96.3351C68.4448 96.4448 68.5433 96.565 68.6293 96.694L70.2934 95.5846C70.1344 95.346 69.9521 95.1237 69.7494 94.9209L68.3351 96.3351ZM68.6293 96.694L68.7308 96.8462L70.3949 95.7367L70.2934 95.5846L68.6293 96.694ZM68.7308 96.8462C69.1966 97.5449 69.1966 98.4551 68.7308 99.1538L70.3949 100.263C71.3085 98.8927 71.3085 97.1073 70.3949 95.7367L68.7308 96.8462ZM68.7308 99.1538C68.5784 99.3824 68.3824 99.5784 68.1538 99.7308L69.2633 101.395C69.7115 101.096 70.0961 100.711 70.3949 100.263L68.7308 99.1538ZM68.1538 99.7308L67.9033 99.8978L69.0127 101.562L69.2633 101.395L68.1538 99.7308ZM67.9033 99.8978C67.7868 99.9754 67.6664 100.046 67.5425 100.109L68.4507 101.891C68.6436 101.793 68.8313 101.683 69.0127 101.562L67.9033 99.8978ZM82.4472 82.7236L82.2602 82.6301L81.3658 84.419L81.5528 84.5125L82.4472 82.7236ZM83 89V83.618H81V89H83ZM76 90H82V88H76V90ZM75 84.0352V89H77V84.0352H75ZM76.0952 82.7699L75.4453 83.2031L76.5547 84.8672L77.2046 84.434L76.0952 82.7699ZM76.9771 82.4046C76.6621 82.4676 76.3625 82.5917 76.0952 82.7699L77.2046 84.434C77.2545 84.4007 77.3105 84.3775 77.3693 84.3657L76.9771 82.4046ZM78.4205 82.1159L76.9771 82.4046L77.3693 84.3657L78.8127 84.0771L78.4205 82.1159ZM79.591 82C79.198 82 78.8059 82.0388 78.4205 82.1159L78.8127 84.0771C79.069 84.0258 79.3297 84 79.591 84V82ZM82.2602 82.6301C81.4315 82.2157 80.5176 82 79.591 82V84C80.2071 84 80.8148 84.1434 81.3658 84.419L82.2602 82.6301ZM54 90C54.5523 90 55 90.4477 55 91H57C57 89.3431 55.6568 88 54 88V90ZM53.646 90L54 90L54 88L53.6459 88L53.646 90ZM53.143 90.0969C53.303 90.0329 53.4737 90 53.6459 90V88C53.2192 88 52.7964 88.0814 52.4003 88.2399L53.143 90.0969ZM52.2047 90.4722L53.143 90.0968L52.4003 88.2399L51.462 88.6152L52.2047 90.4722ZM50.8194 91.2297C51.2492 90.9227 51.7143 90.6683 52.2047 90.4722L51.462 88.6152C50.823 88.8708 50.2169 89.2022 49.6569 89.6022L50.8194 91.2297ZM48.5812 92.8284L50.8194 91.2297L49.6569 89.6022L47.4188 91.2009L48.5812 92.8284ZM49 101V92.0146H47V101H49ZM56 100H48V102H56V100ZM55 91V101H57V91H55ZM75 91V101H77V91H75ZM82 90H76V92H82V90ZM83 101V91H81V101H83ZM76 102H82V100H76V102ZM59.5 60H59V62H59.5V60ZM58.5665 63.6468L60.2627 61.6468L58.7373 60.3532L57.0411 62.3532L58.5665 63.6468ZM28.7627 98.7886L58.5665 63.6468L57.0411 62.3532L27.2373 97.495L28.7627 98.7886ZM26.7627 101.147L28.7627 98.7886L27.2373 97.495L25.2373 99.8532L26.7627 101.147ZM25 97.4079V100.5H27V97.4079H25ZM25 63V97.4079H27V63H25ZM25 61V63H27V61H25ZM28 60H26V62H28V60ZM56.8776 60H28V62H56.8776V60ZM59 60H56.8776V62H59V60Z" fill="#00000F" style="fill:#00000F;fill:color(display-p3 0.0000 0.0000 0.0588);fill-opacity:1;"/>
<path d="M115 283H468V575H990V597H203V612H115V283Z" stroke="#00000F" style="stroke:#00000F;stroke:color(display-p3 0.0000 0.0000 0.0588);stroke-opacity:1;" stroke-width="2" stroke-linecap="round" stroke-linejoin="round"/>
<rect x="468" y="224" width="522" height="351" stroke="#00000F" style="stroke:#00000F;stroke:color(display-p3 0.0000 0.0000 0.0588);stroke-opacity:1;" stroke-width="2" stroke-linecap="round" stroke-linejoin="round"/>
<rect x="203" y="310" width="4" height="212" stroke="#00000F" style="stroke:#00000F;stroke:color(display-p3 0.0000 0.0000 0.0588);stroke-opacity:1;" stroke-width="2" stroke-linecap="round" stroke-linejoin="round"/>
<rect x="115" y="275" width="353" height="8" stroke="#00000F" style="stroke:#00000F;stroke:color(display-p3 0.0000 0.0000 0.0588);stroke-opacity:1;" stroke-width="2" stroke-linecap="round" stroke-linejoin="round"/>
<path d="M623.406 270.5L621 228H839L835.5 279.5M629.462 377.5L631.042 405.408L647 404L705.851 456.96L822 484L830.002 363.5" stroke="#00000F" style="stroke:#00000F;stroke:color(display-p3 0.0000 0.0000 0.0588);stroke-opacity:1;" stroke-width="2" stroke-linecap="round" stroke-linejoin="round"/>
<path d="M513 436C513 435.6 510.167 431.167 509 430.5C509 433.5 500 434 498.5 435C496.077 436.615 494 441 493.5 443.5L519.5 475L522.5 449.5C519.333 445.167 513 436.4 513 436Z" stroke="#00000F" style="stroke:#00000F;stroke:color(display-p3 0.0000 0.0000 0.0588);stroke-opacity:1;" stroke-width="2" stroke-linecap="round" stroke-linejoin="round"/>
<path d="M550 549.5L544 551V557.5L538.5 573L540.5 573.5L546 559L547.5 573.5H553.5L550 558.5V549.5Z" stroke="#00000F" style="stroke:#00000F;stroke:color(display-p3 0.0000 0.0000 0.0588);stroke-opacity:1;" stroke-width="2" stroke-linecap="round" stroke-linejoin="round"/>
<path d="M707.5 512L713.5 510.5L714.5 575H708L707.5 512Z" stroke="#00000F" style="stroke:#00000F;stroke:color(display-p3 0.0000 0.0000 0.0588);stroke-opacity:1;" stroke-width="2" stroke-linecap="round" stroke-linejoin="round"/>
<path d="M673 525.5L686 531.5L692 528.5V526.5L675.5 520.5L666 523C666.167 524.5 666.3 527.7 665.5 528.5C664 532.5 666.5 534 668 534.5C669.71 535.07 671.5 535.5 673 534.5C675.08 533.113 674.5 531.5 674.5 530C674.5 528.8 673.5 527.5 673 527V525.5Z" stroke="#00000F" style="stroke:#00000F;stroke:color(display-p3 0.0000 0.0000 0.0588);stroke-opacity:1;" stroke-width="2" stroke-linecap="round" stroke-linejoin="round"/>
<path d="M699 523L707 519.5V529L702.5 528.5L702 531L707 532.5L707.5 538L700.5 536.5L699 523Z" stroke="#00000F" style="stroke:#00000F;stroke:color(display-p3 0.0000 0.0000 0.0588);stroke-opacity:1;" stroke-width="2" stroke-linecap="round" stroke-linejoin="round"/>
<path d="M728 447L724.5 460C723.5 464 729 469.5 722 470L696.5 446.5H705C705.5 446.167 706.4 445.1 706 443.5C705.6 441.9 712.167 428.833 715.5 422.5C716.333 421.667 721.4 416.7 725 417.5C729.5 418.5 737.5 423 738.5 424.5C739.3 425.7 737.333 430.333 736.5 431C735.167 432.5 732 435.5 730 440C729.081 442.068 728.167 445 728 447Z" stroke="#00000F" style="stroke:#00000F;stroke:color(display-p3 0.0000 0.0000 0.0588);stroke-opacity:1;" stroke-width="2" stroke-linecap="round" stroke-linejoin="round"/>
<path d="M492.5 443C494.504 438.151 496.94 433.227 505.036 432.98C508.154 432.886 510.362 430.304 507.455 429.171C505.471 428.398 502.654 428 499 428C490.5 428 486.097 432.506 484.5 436.5C483.5 439 484.492 449 492.5 449C493.597 450.646 513.185 479.52 512.5 485C512.345 486.244 506 503.5 505 507C505.191 509.876 507.241 515.284 508.5 516.5C495.5 552.5 512.725 515.137 514 514.5C515.5 510 519.654 476.378 519.5 476C518.304 473.061 496.002 447.837 495.5 447M492.5 443C492.269 443.56 495 446.5 495.5 447M492.5 443L495.5 447" stroke="#00000F" style="stroke:#00000F;stroke:color(display-p3 0.0000 0.0000 0.0588);stroke-opacity:1;" stroke-width="2" stroke-linecap="round" stroke-linejoin="round"/>
<path d="M647 404L754.789 501L508.5 558L528 414.5L647 404Z" stroke="#00000F" style="stroke:#00000F;stroke:color(display-p3 0.0000 0.0000 0.0588);stroke-opacity:1;" stroke-width="2" stroke-linecap="round" stroke-linejoin="round"/>
<path d="M514.5 514L511 535L505 532.5L514.5 514Z" stroke="#00000F" style="stroke:#00000F;stroke:color(display-p3 0.0000 0.0000 0.0588);stroke-opacity:1;" stroke-width="2" stroke-linecap="round" stroke-linejoin="round"/>
<path d="M682.5 434L666 418.5C669 416 670 410.5 670.5 408.5C671.207 405.672 674.709 395.291 675.5 394.5C676 394 679 393 681 393C683 393 685 393.5 686 394C688.608 395.304 691 396.5 690.5 399.5C690.1 401.9 688.667 404.167 688 405C686.167 408.667 684.577 416.749 684 420.5C683 427 680 432.5 682.5 434Z" stroke="#00000F" style="stroke:#00000F;stroke:color(display-p3 0.0000 0.0000 0.0588);stroke-opacity:1;" stroke-width="2" stroke-linecap="round" stroke-linejoin="round"/>
<path d="M744 541.5L714.5 532L714 539.5C723.5 541.333 742.3 545.3 741.5 546.5C740.7 547.7 740.833 552.667 741 555L742.5 556L746.5 558C748.167 557.5 751.4 556.1 751 554.5C751.5 552.5 751.5 550.5 751 549.5C750.5 548.5 749 547 748 547C747.2 547 746.333 547.333 746 547.5C745.833 546.5 745.4 544.2 745 543C744.6 541.8 744.167 541.5 744 541.5Z" stroke="#00000F" style="stroke:#00000F;stroke:color(display-p3 0.0000 0.0000 0.0588);stroke-opacity:1;" stroke-width="2" stroke-linecap="round" stroke-linejoin="round"/>
<path d="M698.5 532.5C697.7 530.5 698.5 520.667 699 516L692.5 517V521.5L692 528.5C677 537.5 664 541.5 648 552C648.167 554.167 648.5 559.1 648.5 561.5V564.5C648.5 566 650.5 567 651.5 567.5C652.5 568 655.5 567.5 657 567C658.5 566.5 660.5 564.5 661.5 563C662.3 561.8 661.833 559.167 661.5 558L655.5 555L655 553.5C667 547.667 691.2 536.2 692 537C692.8 537.8 694 537.667 694.5 537.5L699.5 569L700 573.5H705.5C705.5 573.167 705.6 572.2 706 571C706.4 569.8 705.167 568.833 704.5 568.5L700 536C699.833 535.667 699.3 534.5 698.5 532.5Z" stroke="#00000F" style="stroke:#00000F;stroke:color(display-p3 0.0000 0.0000 0.0588);stroke-opacity:1;" stroke-width="2" stroke-linecap="round" stroke-linejoin="round"/>
<path d="M558 547.5L570.5 544.5L601 556.5L601.5 565.5C600.667 565.167 599 564.8 599 566C599 567.5 598.5 571.5 597 572C595.5 572.5 594 569.5 593 567.5C592.2 565.9 592.333 562.167 592.5 560.5L595 559.5L558 547.5Z" stroke="#00000F" style="stroke:#00000F;stroke:color(display-p3 0.0000 0.0000 0.0588);stroke-opacity:1;" stroke-width="2" stroke-linecap="round" stroke-linejoin="round"/>
<path d="M495 562.5C495.8 561.3 506 557.5 508.5 555L509 557.5L521.5 555C521.5 555 501 565.5 501 567.5V575C497.5 575 491.5 575.5 490 574C488.558 572.558 490.167 569.333 491 568.5L494 568C494 566.667 494.2 563.7 495 562.5Z" stroke="#00000F" style="stroke:#00000F;stroke:color(display-p3 0.0000 0.0000 0.0588);stroke-opacity:1;" stroke-width="2" stroke-linecap="round" stroke-linejoin="round"/>
<path d="M470.996 347.841C474.132 340.12 479.569 331.988 485.135 324.561L482.5 341.5L470.423 362.322C470.741 357.682 470.922 352.815 470.996 347.841ZM470.996 347.841C471.358 323.364 469.119 296.286 467.842 280.853C467.349 274.889 467 270.665 467 269C466.921 266.794 466.78 264.737 466.654 262.888C465.977 253 465.706 249.048 477.5 260C478.368 260.145 479.539 260.903 480.908 262.116L546.5 270.5L567 281.5L575 296.5L578.5 306L577.5 324.5L566 341.5L527.5 372.5L488 407.5L468 405.5V366.5L468.951 364.861C467.47 359.816 468.511 353.957 470.996 347.841Z" stroke="#00000F" style="stroke:#00000F;stroke:color(display-p3 0.0000 0.0000 0.0588);stroke-opacity:1;" stroke-width="2" stroke-linecap="round" stroke-linejoin="round"/>
<path d="M639.267 278.292C641.051 279.734 642.386 281.657 643.111 283.833L647.5 297L650 314.5L650.5 334L642.5 360L634 371.5L621 387.5L595.5 379.5L575.5 386.5L561.5 399.5L530 409L489 406L514.272 392.621C514.422 392.542 514.589 392.502 514.758 392.505L542 393L570.5 375L584 359.5L591 364L589 370.5L586 375L587.5 377L593 372L598.5 367L594.5 345.5L612 320.5L599 321.5L582 274L629 270L639.267 278.292Z" stroke="#00000F" style="stroke:#00000F;stroke:color(display-p3 0.0000 0.0000 0.0588);stroke-opacity:1;" stroke-width="2" stroke-linecap="round" stroke-linejoin="round"/>
<path d="M556 357.5C560.136 352.493 570.445 344.362 573 340.5M556 357.5L573 340.5M556 357.5C562.551 357.791 570.206 345.014 575.5 346.5C577.376 347.027 585.5 335 586 315.5C588.013 314.928 588.5 331 591 344C590 384.5 598.264 323.039 582.5 278C584.5 272 570.665 270.5 561 270.5C551.335 270.5 562.5 275.5 566.5 282.5C582 274 583 321.5 582 325C577.5 344.5 577.5 340.5 573 340.5" stroke="#00000F" style="stroke:#00000F;stroke:color(display-p3 0.0000 0.0000 0.0588);stroke-opacity:1;" stroke-width="2" stroke-linecap="round" stroke-linejoin="round"/>
<path d="M632.5 270.5L667.5 265C678.7 265 690.5 267 695 268C698.333 268 705.6 267.5 708 265.5C710.4 263.5 712.667 263.333 713.5 263.5C716 262.833 721.2 261.6 722 262C723 262.5 728.5 264 728 265C727.6 265.8 731.833 269.333 734 271L729.5 280C731.9 285.2 733.5 291.833 734 294.5C734.5 300.5 746.5 302.5 748.5 299.5C750.5 296.5 753.5 300 755.5 294C765.1 302.4 770.167 306.833 771.5 308C773.333 308.667 777.4 310.7 779 313.5C781 317 784.5 326 785 326C785.5 326 787 328.5 789.5 332C792 335.5 795 337 796 339.5C797 342 799.5 346.5 800.5 346C801.3 345.6 803.833 349.167 805 351C805.667 353.5 806.8 359 806 361C805.2 363 803 365.833 802 367C798.167 370 790.7 376.4 791.5 378C792.3 379.6 791.167 382 790.5 383C788.9 386.6 786 391.5 780 391.5C779.5 398.5 780 401 765.5 402.5L755 415.5C746.5 415.5 737 410 736.5 408C736 406 748 406 749 404C749.8 402.4 754.667 394.333 757 390.5C757.667 387 759 379.7 759 378.5C759 377.3 754 375 751.5 374C756.5 365.5 758.5 357 757 356.5C755.8 356.1 755 350 746.5 352.5C743.7 351.7 740.667 355.833 739.5 358C740.667 355.833 742.9 351.1 742.5 349.5C742 347.5 741 345.5 738 343.5C735 341.5 727 343.5 725.5 344.5C724 345.5 714 352 713 355C712 358 711.5 360.5 707 357.5C702.5 354.5 705 356.5 704.5 351C704.1 346.6 701 343.5 699.5 342.5C696.667 341.5 690.5 339.7 688.5 340.5C686 341.5 680 339.5 680 337.5C680 335.5 676.5 335.5 675 336C673.5 336.5 650 338.5 649 341C648 343.5 651.5 339 651.5 335C651.5 331 650 300.5 647.5 296C645 291.5 643.5 278.5 641 280C639 281.2 634.5 274.167 632.5 270.5Z" stroke="#00000F" style="stroke:#00000F;stroke:color(display-p3 0.0000 0.0000 0.0588);stroke-opacity:1;" stroke-width="2" stroke-linecap="round" stroke-linejoin="round"/>
<path d="M666 337C664.833 338.167 662.6 341.1 663 343.5C663.5 346.5 664.5 352 666 353C667.5 354 677.5 360.5 680 360.5C682 360.5 686.5 360.5 688.5 360.5C688 361.833 686.9 365 686.5 367C686 369.5 684.5 373 685.5 375C686.5 377 691 383.5 697.5 384.5C704 385.5 701 382.5 707 382C713 381.5 703 386 705 391.5C707 397 710.5 398.5 713.5 399.5C716.5 400.5 723.5 399.5 724.5 398C725.5 396.5 722.5 400.5 724 402.5C725.5 404.5 731 409 733 408.5C735 408 747 402.5 748.5 404.5C750 406.5 754.5 396.5 756.5 391.5C758.5 386.5 760 381 758.5 379C757 377 752 372 751.5 374C751 376 754 370 755 366.5C756 363 758.5 360.5 757 357.5C755.5 354.5 752 350 745.5 353.5C740.3 356.3 738.333 358.667 738 359.5L742 349.5C743.5 341 732 341 732.5 343C733 345 719 343 719.5 348C719.9 352 716 354.667 714 355.5C711.833 356.333 707.1 357.7 705.5 356.5C703.5 355 712 356.5 706.5 347C702.1 339.4 688.667 339.167 682.5 340C682.667 338.667 682.3 335.8 679.5 335C676.7 334.2 669.333 336 666 337Z" stroke="#00000F" style="stroke:#00000F;stroke:color(display-p3 0.0000 0.0000 0.0588);stroke-opacity:1;" stroke-width="2" stroke-linecap="round" stroke-linejoin="round"/>
<path d="M729 280.5C730.833 281.5 734.3 284.1 733.5 286.5C732.7 288.9 733.5 292.5 734 294C734.333 296 735.9 300 739.5 300C744 300 747 301.5 750 299.5C753 297.5 760 287 760 285.5C760 284 756.5 294 758 295C759.2 295.8 764.167 301 766.5 303.5C768.833 305.333 773.9 309.2 775.5 310C777.5 311 779.5 312.5 780.5 315C781.5 317.5 783.5 325.5 785.5 327C787.1 328.2 796.5 340.833 801 347C802.667 348.5 806 351.8 806 353C806 354.2 806.667 355.833 807 356.5L820.5 357C823.5 354.833 829.8 349 831 343C832.5 335.5 830 324.5 829 321.5C828 318.5 824.5 309.5 825.5 308.5C826.5 307.5 819 295.5 811 290C803 284.5 794 292.5 787 288C781.4 284.4 775.333 279.167 773 277C769 273.5 760.5 266.1 758.5 264.5C756 262.5 745.5 259 743.5 261C741.5 263 736 263.5 729 280.5Z" stroke="#00000F" style="stroke:#00000F;stroke:color(display-p3 0.0000 0.0000 0.0588);stroke-opacity:1;" stroke-width="2" stroke-linecap="round" stroke-linejoin="round"/>
<path d="M954.5 225H989V274L978 294L977.638 293.602L967.5 312L951.5 335L947.78 329.872L911.945 340.285C917.161 339.602 922.327 338.83 927.086 338.119C954.003 334.098 967.896 332.022 904 359C868.923 364.908 861.65 363.999 854.612 363.119C852.12 362.808 849.658 362.5 846 362.5C840.793 362.324 834.587 362.9 829.282 363.393C825.199 363.772 821.649 364.101 819.5 364C806.208 358.643 807.076 358.525 812.276 357.816C820.182 356.737 838.101 354.293 831.5 330C831.5 329.806 831.501 329.616 831.503 329.428L822.896 301.111L806 285L820.376 284.129L834 280L840.016 279.752L859 268L873 263L887.769 258.077L914.5 226L954.09 225.968L954.5 225Z" stroke="#00000F" style="stroke:#00000F;stroke:color(display-p3 0.0000 0.0000 0.0588);stroke-opacity:1;" stroke-width="2" stroke-linecap="round" stroke-linejoin="round"/>
<path d="M936.5 316.5C935 303.667 932 291.5 905.5 267C881.977 245.253 938 276.5 941.5 311.5C940.82 307.5 928.883 281.833 923 269.5C938.2 285.5 947.667 297.833 950.5 302C954 303 957.4 300.4 943 282C925 259 924 261.5 914 255.5C904 249.5 913.627 249.813 924 255C932 259 920.5 253 938 266L936.5 258L977 289C970.167 296.667 952.5 312.9 936.5 316.5Z" stroke="#00000F" style="stroke:#00000F;stroke:color(display-p3 0.0000 0.0000 0.0588);stroke-opacity:1;" stroke-width="2" stroke-linecap="round" stroke-linejoin="round"/>
<path d="M867 277.5C872.167 279.667 885 287.3 895 300.5" stroke="#00000F" style="stroke:#00000F;stroke:color(display-p3 0.0000 0.0000 0.0588);stroke-opacity:1;" stroke-width="2" stroke-linecap="round" stroke-linejoin="round"/>
<path d="M879.5 268C889.5 268.333 912.7 277 925.5 309" stroke="#00000F" style="stroke:#00000F;stroke:color(display-p3 0.0000 0.0000 0.0588);stroke-opacity:1;" stroke-width="2" stroke-linecap="round" stroke-linejoin="round"/>
<path d="M917.5 240C923.9 234.4 961.5 266 979.5 282.5L988.5 271L988 228.5L932.5 229.5C942.5 237.5 960.2 252.4 951 248C939.5 242.5 927 239 920 233.5C913 228 909.5 247 917.5 240Z" stroke="#00000F" style="stroke:#00000F;stroke:color(display-p3 0.0000 0.0000 0.0588);stroke-opacity:1;" stroke-width="2" stroke-linecap="round" stroke-linejoin="round"/>
<path d="M403 464.5C405 464.5 406.167 465.5 406.5 466C405.833 467 404.4 468.8 404 468C403.6 467.2 401.167 467.667 400 468V469.5C404 473.362 405.3 468 406.5 472C407.7 476 405 477.5 404.5 478.5C404.1 479.3 399.667 479.167 397.5 479L395 476L398.5 475C399.5 475.333 401.7 476 402.5 476C403.5 476 403 473.5 402.5 473.5C402.1 473.5 399.333 472.5 398 472C397.5 471.5 396.3 470 395.5 468C394.7 466 396.833 464.833 398 464.5H403Z" stroke="#00000F" style="stroke:#00000F;stroke:color(display-p3 0.0000 0.0000 0.0588);stroke-opacity:1;" stroke-width="2" stroke-linecap="round" stroke-linejoin="round"/>
<path d="M222 498.5L220 495C226.5 493 228 494.5 230 494.5C231.6 494.5 232 496.167 232 497V508H229L228.5 507C227.333 507.5 224.7 508.5 223.5 508.5C222.3 508.5 221 507.167 220.5 506.5C220.167 505.167 219.7 502.3 220.5 501.5C221.3 500.7 223.5 499.833 224.5 499.5H227.5C228 499.333 228.7 498.7 227.5 497.5C226.3 496.3 223.333 497.667 222 498.5Z" stroke="#00000F" style="stroke:#00000F;stroke:color(display-p3 0.0000 0.0000 0.0588);stroke-opacity:1;" stroke-width="2" stroke-linecap="round" stroke-linejoin="round"/>
<path d="M235 508V495L239 494.5L239.5 495.5L241 494.5C241.667 494.167 243.4 493.6 245 494C246.6 494.4 247 495.833 247 496.5L246.5 507.5H243V502V499C242.833 498.667 242.5 497.9 242.5 497.5C242.5 497.1 241.167 497.333 240.5 497.5L239.5 499.5V508H235Z" stroke="#00000F" style="stroke:#00000F;stroke:color(display-p3 0.0000 0.0000 0.0588);stroke-opacity:1;" stroke-width="2" stroke-linecap="round" stroke-linejoin="round"/>
<path d="M256.5 489V494.5C255.167 493.5 252.1 492.5 250.5 496.5C248.9 500.5 249.833 504.833 250.5 506.5L252.5 508H255L258 506.5V507.5H261V489.5L256.5 489Z" stroke="#00000F" style="stroke:#00000F;stroke:color(display-p3 0.0000 0.0000 0.0588);stroke-opacity:1;" stroke-width="2" stroke-linecap="round" stroke-linejoin="round"/>
<path d="M280 497V495L287.5 494.5V504.5H291V508L279.5 508.5V504.5H283V497H280Z" stroke="#00000F" style="stroke:#00000F;stroke:color(display-p3 0.0000 0.0000 0.0588);stroke-opacity:1;" stroke-width="2" stroke-linecap="round" stroke-linejoin="round"/>
<path d="M282.5 491C282.9 493 285 492.833 286 492.5C286.833 492.333 288.4 491.5 288 489.5C287.6 487.5 285.5 487.333 284.5 487.5C283.667 487.833 282.1 489 282.5 491Z" stroke="#00000F" style="stroke:#00000F;stroke:color(display-p3 0.0000 0.0000 0.0588);stroke-opacity:1;" stroke-width="2" stroke-linecap="round" stroke-linejoin="round"/>
<path d="M293.5 508V495L297.5 494V495.5C297.667 494.833 298.7 493.5 301.5 493.5C304.3 493.5 305.333 495.833 305.5 497V507.5H301V499C301 496.6 299 498 298 499V508H293.5Z" stroke="#00000F" style="stroke:#00000F;stroke:color(display-p3 0.0000 0.0000 0.0588);stroke-opacity:1;" stroke-width="2" stroke-linecap="round" stroke-linejoin="round"/>
<path d="M315 489.5V495C314 494.667 311.7 494.1 310.5 494.5C309.3 494.9 308.333 496.333 308 497C307.833 499.167 307.8 504.1 309 506.5C310.2 508.9 314.5 507.833 316.5 507V508H320V489.5H315Z" stroke="#00000F" style="stroke:#00000F;stroke:color(display-p3 0.0000 0.0000 0.0588);stroke-opacity:1;" stroke-width="2" stroke-linecap="round" stroke-linejoin="round"/>
<path d="M323 498V495L331 495.5V505.5L334.5 505L334 508.5L323 507.5L322.5 505L326.5 504.5V498H323Z" stroke="#00000F" style="stroke:#00000F;stroke:color(display-p3 0.0000 0.0000 0.0588);stroke-opacity:1;" stroke-width="2" stroke-linecap="round" stroke-linejoin="round"/>
<path d="M327 492.5H329.5C331.1 491.3 330.5 489.333 330 488.5C329.5 488 328.2 487.3 327 488.5C325.8 489.7 326.5 491.667 327 492.5Z" stroke="#00000F" style="stroke:#00000F;stroke:color(display-p3 0.0000 0.0000 0.0588);stroke-opacity:1;" stroke-width="2" stroke-linecap="round" stroke-linejoin="round"/>
<path d="M339.5 495.5H337L340.5 507.5H345L350 495H345L342.5 503L339.5 495.5Z" stroke="#00000F" style="stroke:#00000F;stroke:color(display-p3 0.0000 0.0000 0.0588);stroke-opacity:1;" stroke-width="2" stroke-linecap="round" stroke-linejoin="round"/>
<path d="M352 497.5L352.5 494.5L359.5 495V504.5L363.5 505.5V508.5L352 508V505H356L355.5 498L352 497.5Z" stroke="#00000F" style="stroke:#00000F;stroke:color(display-p3 0.0000 0.0000 0.0588);stroke-opacity:1;" stroke-width="2" stroke-linecap="round" stroke-linejoin="round"/>
<path d="M355.5 492.5C356.7 493.3 358 492.833 358.5 492.5C359.167 492.167 360.4 491.1 360 489.5C359.5 487.5 358 488 356 487.5C354.4 487.1 354 488.667 354 489.5C354 490.167 354.3 491.7 355.5 492.5Z" stroke="#00000F" style="stroke:#00000F;stroke:color(display-p3 0.0000 0.0000 0.0588);stroke-opacity:1;" stroke-width="2" stroke-linecap="round" stroke-linejoin="round"/>
<path d="M373.5 489V494C373 494 371.4 494.1 369 494.5C366.6 494.9 366 496.333 366 497C365.5 499.333 364.9 504.6 366.5 507C368.1 509.4 372.5 508.333 374.5 507.5V509H378V489.5L373.5 489Z" stroke="#00000F" style="stroke:#00000F;stroke:color(display-p3 0.0000 0.0000 0.0588);stroke-opacity:1;" stroke-width="2" stroke-linecap="round" stroke-linejoin="round"/>
<path d="M385 495.5H380.5L381 504C380.833 504.667 380.7 506.3 381.5 507.5C382.3 508.7 385.5 508 387 507.5L389 507V508H392.5L392 495H387.5C387.667 497 388 501.7 388 504.5C386.4 506.5 385.333 505 385 504V495.5Z" stroke="#00000F" style="stroke:#00000F;stroke:color(display-p3 0.0000 0.0000 0.0588);stroke-opacity:1;" stroke-width="2" stroke-linecap="round" stroke-linejoin="round"/>
<path d="M395.5 495L397 498.5L401.5 497C402.5 498 404.1 499.9 402.5 499.5C400.9 499.1 397.167 500.333 395.5 501C395.167 501.333 394.5 502.8 394.5 506C394.5 506 395.5 508.5 399 508.5C402.5 508.5 403.5 506 403.5 506L404 507.5H407V498C406.833 497.667 406.2 496.6 405 495C403.8 493.4 398.167 494.333 395.5 495Z" stroke="#00000F" style="stroke:#00000F;stroke:color(display-p3 0.0000 0.0000 0.0588);stroke-opacity:1;" stroke-width="2" stroke-linecap="round" stroke-linejoin="round"/>
<path d="M409 493L408.5 489.5L417 489L417.5 504C419.833 503.667 423.8 503.9 421 507.5C418.2 511.1 414.167 508 412.5 506V493H409Z" stroke="#00000F" style="stroke:#00000F;stroke:color(display-p3 0.0000 0.0000 0.0588);stroke-opacity:1;" stroke-width="2" stroke-linecap="round" stroke-linejoin="round"/>
<path d="M434.5 498.5L436.5 495.5C435.5 494.333 432.3 492.6 427.5 495C423.1 498.6 426 500.833 428 501.5C429.667 502 432.8 503.4 432 505C429.182 506.6 426.492 504.667 425.5 503.5L424.5 506.5C426.167 507 430.4 507.8 434 507C437.6 507 435.5 502.333 434 500C431.833 500.333 427.7 500.4 428.5 498C429.3 495.6 432.833 497.333 434.5 498.5Z" stroke="#00000F" style="stroke:#00000F;stroke:color(display-p3 0.0000 0.0000 0.0588);stroke-opacity:1;" stroke-width="2" stroke-linecap="round" stroke-linejoin="round"/>
<path d="M446.5 502.5C445.3 501.7 443.667 502.167 443 502.5C442.5 503.667 441.8 506.3 443 507.5C444.2 508.7 446.167 508 447 507.5C447.333 506.167 447.7 503.3 446.5 502.5Z" stroke="#00000F" style="stroke:#00000F;stroke:color(display-p3 0.0000 0.0000 0.0588);stroke-opacity:1;" stroke-width="2" stroke-linecap="round" stroke-linejoin="round"/>
<path d="M317 435C318.5 436 320 436.5 320 437.5C319.5 441.5 313 437 313.5 441C313.686 442.488 318.5 441 320 444C320.5 445.5 320 447 319.5 447.5C317.379 449.621 314 450 312 450.5C310.4 450.9 308.667 449.667 308 449C307.833 448.667 307.7 447.6 308.5 446C309.3 444.4 310.5 445.333 311 446C312.5 446.333 315.6 446.8 316 446C316.5 445 312.5 445.5 311 444.5C309.5 443.5 307.209 442.953 308 439C308.5 436.5 311.5 435.5 311 435.5C310.5 435.5 314.469 433.313 317 435Z" stroke="#00000F" style="stroke:#00000F;stroke:color(display-p3 0.0000 0.0000 0.0588);stroke-opacity:1;" stroke-width="2" stroke-linecap="round" stroke-linejoin="round"/>
<path d="M330.5 436L326 435.5L322 440V444.5C322.333 445.333 323 447.2 323 448C323 449 327 450 329.5 450.5C331.5 450.9 333.667 450 334.5 449.5L334 447C333.5 446.667 332.3 446.2 331.5 447C330.7 447.8 328.167 447 327 446.5V444.5L334.5 445C335 445.167 335.8 444.6 335 441C334.2 437.4 331.667 436.167 330.5 436Z" stroke="#00000F" style="stroke:#00000F;stroke:color(display-p3 0.0000 0.0000 0.0588);stroke-opacity:1;" stroke-width="2" stroke-linecap="round" stroke-linejoin="round"/>
<path d="M336.5 440V436.5H342.5V438.5C343 438.5 344.3 438.1 345.5 436.5C346.7 434.9 348.667 435.833 349.5 436.5V442.5H346.5C346.167 442.333 345.5 441.6 345.5 440C345.5 438.4 343.833 441.333 343 443V447L347 447.5L346.5 450.5L337 450L336.5 447L339 446.5L338.5 440H336.5Z" stroke="#00000F" style="stroke:#00000F;stroke:color(display-p3 0.0000 0.0000 0.0588);stroke-opacity:1;" stroke-width="2" stroke-linecap="round" stroke-linejoin="round"/>
<path d="M355 450L350.5 436.5L355.5 437L358.5 445L360 437L364.5 436.5L360 450H355Z" stroke="#00000F" style="stroke:#00000F;stroke:color(display-p3 0.0000 0.0000 0.0588);stroke-opacity:1;" stroke-width="2" stroke-linecap="round" stroke-linejoin="round"/>
<path d="M366 440V436.5L374 437V446.5H377.5L378 450H366L365.5 446.5H370V440H366Z" stroke="#00000F" style="stroke:#00000F;stroke:color(display-p3 0.0000 0.0000 0.0588);stroke-opacity:1;" stroke-width="2" stroke-linecap="round" stroke-linejoin="round"/>
<path d="M370 431C368.8 431.4 369.5 432.833 370 433.5L373.5 434.5C374.5 434.5 374.5 434.5 375 433C375.738 430.787 375.167 430.833 374 430.5C373.167 430.5 371.2 430.6 370 431Z" stroke="#00000F" style="stroke:#00000F;stroke:color(display-p3 0.0000 0.0000 0.0588);stroke-opacity:1;" stroke-width="2" stroke-linecap="round" stroke-linejoin="round"/>
<path d="M390.5 441L393 438.5L390 436C388.667 436.167 385.7 436.5 384.5 436.5C383.3 436.5 381.667 438.833 381 440C381.167 441.667 381.4 445.3 381 446.5C380.6 447.7 383.167 449.333 384.5 450L390 450.5L393 449L392.5 446C391.5 445.667 389.5 445.1 389.5 445.5C389.5 446 387.5 447 387 447C386.6 447 385.833 445.667 385.5 445L385 441.5C385.167 441.167 385.7 440.2 386.5 439C387.3 437.8 388.5 438.5 389 439L390.5 441Z" stroke="#00000F" style="stroke:#00000F;stroke:color(display-p3 0.0000 0.0000 0.0588);stroke-opacity:1;" stroke-width="2" stroke-linecap="round" stroke-linejoin="round"/>
<path d="M404 436H399C397 437.2 395.167 440.167 394.5 441.5L395 446L399 449.5C398.833 449.833 399.5 450.5 403.5 450.5C405.5 451 406.667 449.5 407.5 448L404 446C403.167 446.167 401.3 446.5 400.5 446.5C399.7 446.5 399.5 445.167 399.5 444.5H407.5V440C407.5 438.8 405.167 436.833 404 436Z" stroke="#00000F" style="stroke:#00000F;stroke:color(display-p3 0.0000 0.0000 0.0588);stroke-opacity:1;" stroke-width="2" stroke-linecap="round" stroke-linejoin="round"/>
<path d="M223.5 403.5L227.5 404L228 407.5H231.5V410L228 410.5C227.5 412.167 226.7 415.8 227.5 417C228.3 418.2 230.5 416.833 231.5 416L232.5 419.5C231.833 420.167 229.7 421.4 226.5 421C223.3 420.6 222.5 417.833 222.5 416.5V411H220L219.5 407L223 406.5L223.5 403.5Z" stroke="#00000F" style="stroke:#00000F;stroke:color(display-p3 0.0000 0.0000 0.0588);stroke-opacity:1;" stroke-width="2" stroke-linecap="round" stroke-linejoin="round"/>
<path d="M240.5 407H235.5L235 410.5H237.5V417.5H235.5V420.5L244.5 421.5V417.5L241.5 417C241.333 416.333 241 414.6 241 413C241 411.4 242.667 410.333 243.5 410L244 412.5L247 412C247 410.333 246.5 407 244.5 407C242.5 407 241.333 409 241 410L240.5 407Z" stroke="#00000F" style="stroke:#00000F;stroke:color(display-p3 0.0000 0.0000 0.0588);stroke-opacity:1;" stroke-width="2" stroke-linecap="round" stroke-linejoin="round"/>
<path d="M250.5 410.5V407.5C253 407 255.232 406.744 259 408C260.5 408.5 261.667 408.348 261.5 410.5L261 421C258 421.5 258 417.4 258 419C258 420.6 256 421.333 255 421.5C253.667 421.667 251.11 421.147 249.5 419C248 417 249.5 416 249.5 414.5C250 413 250.582 412 255 412C255.5 412 258 413.118 258 412C258 410.5 257 410 255.5 410L250.5 410.5Z" stroke="#00000F" style="stroke:#00000F;stroke:color(display-p3 0.0000 0.0000 0.0588);stroke-opacity:1;" stroke-width="2" stroke-linecap="round" stroke-linejoin="round"/>
<path d="M220.5 391.5L220 377.5L225 378C225.667 377.333 227.5 376 229.5 376C231.5 376 232.667 378.333 233 379.5L232.5 391L228.5 390.5C229 388.667 229.7 384.4 228.5 382C227.3 379.6 225.667 381 225 382V391L220.5 391.5Z" stroke="#00000F" style="stroke:#00000F;stroke:color(display-p3 0.0000 0.0000 0.0588);stroke-opacity:1;" stroke-width="2" stroke-linecap="round" stroke-linejoin="round"/>
<path d="M239 386H248C248.167 384.667 248 381.5 246 379.5C243.5 377 243.5 378 240 377.5C237.2 377.1 235.5 379.333 235 380.5V385.5C235.333 387.333 237 391.2 241 392C245 392.8 247 390.667 247.5 389.5C247.167 388.333 246.1 386.4 244.5 388C242.9 389.6 240.167 387.333 239 386Z" stroke="#00000F" style="stroke:#00000F;stroke:color(display-p3 0.0000 0.0000 0.0588);stroke-opacity:1;" stroke-width="2" stroke-linecap="round" stroke-linejoin="round"/>
<path d="M252 377L251.5 374H256.5L257 377.5L260.5 377L260 381H257C256.833 382.5 256.5 385.9 256.5 387.5C256.5 389.1 259.5 388.167 261 387.5C262.167 387.833 263.8 389 261 391C258.2 393 253.833 390.167 252 388.5V381H250L249 377.5L252 377Z" stroke="#00000F" style="stroke:#00000F;stroke:color(display-p3 0.0000 0.0000 0.0588);stroke-opacity:1;" stroke-width="2" stroke-linecap="round" stroke-linejoin="round"/>
<path d="M265 391.5L263 378L267 379L268 385L269.5 379.5L272.5 380L273.5 384L274 378H277.5C277.5 380.5 277.6 385 278 383C278.4 381 280.833 378.5 282 377.5C282.833 376.667 285.1 375.4 287.5 377C289.9 378.6 291.167 381 291.5 382C291.333 383.167 291 385.8 291 387C291 388.2 289 390.167 288 391L283 391.5C282.5 391.333 281.3 390.8 280.5 390C279.7 390.8 278.5 388.333 278 387L276.5 391H272L270.5 385L269 391.5H265Z" stroke="#00000F" style="stroke:#00000F;stroke:color(display-p3 0.0000 0.0000 0.0588);stroke-opacity:1;" stroke-width="2" stroke-linecap="round" stroke-linejoin="round"/>
<path d="M294 380.5L293 377.5L299 376.5C299.167 377.667 299.5 379.8 299.5 379C299.5 378.2 301.167 377.333 302 377L306 377.5L305 383L302.5 382.5C302.667 382.167 302.8 381.4 302 381C301.2 380.6 300 382.5 299.5 383.5L300 387.5L303 388V391H293.5L293 388L296 387.5V381L294 380.5Z" stroke="#00000F" style="stroke:#00000F;stroke:color(display-p3 0.0000 0.0000 0.0588);stroke-opacity:1;" stroke-width="2" stroke-linecap="round" stroke-linejoin="round"/>
<path d="M308 390.5L307.5 372.5H313L314 382.5L317 378H321L317 384.5L321 391L316 390.5L312.5 385V391L308 390.5Z" stroke="#00000F" style="stroke:#00000F;stroke:color(display-p3 0.0000 0.0000 0.0588);stroke-opacity:1;" stroke-width="2" stroke-linecap="round" stroke-linejoin="round"/>
<path d="M330.5 371.5C328.5 369.9 326.667 371.5 326 372.5C326.167 373.333 326.6 375.1 327 375.5C327.4 375.9 329.5 375.667 330.5 375.5C331.333 374.833 332.5 373.1 330.5 371.5Z" stroke="#00000F" style="stroke:#00000F;stroke:color(display-p3 0.0000 0.0000 0.0588);stroke-opacity:1;" stroke-width="2" stroke-linecap="round" stroke-linejoin="round"/>
<path d="M323 380.5V378L331 377.5V388L334 387.5V390.5L323 391.5L322.5 387.5L326.5 387V381L323 380.5Z" stroke="#00000F" style="stroke:#00000F;stroke:color(display-p3 0.0000 0.0000 0.0588);stroke-opacity:1;" stroke-width="2" stroke-linecap="round" stroke-linejoin="round"/>
<path d="M337.5 391.5L337 378L341 376.5L342 378C342.5 377.667 344 376.9 346 376.5C348 376.1 348.833 379 349 380.5V390.5H345C345 388 344.9 382.6 344.5 381C344.1 379.4 342.333 381 341.5 382L341 392L337.5 391.5Z" stroke="#00000F" style="stroke:#00000F;stroke:color(display-p3 0.0000 0.0000 0.0588);stroke-opacity:1;" stroke-width="2" stroke-linecap="round" stroke-linejoin="round"/>
<path d="M355 377.5H360.5L364 375.5L364.5 379.5C362.833 378.5 360 377.2 362 380C364 382.8 362.167 385.167 361 386L356 386.5V388H362C362.5 388.667 363.6 390 364 390C364.5 390 364 393 364 394C364 395 356.5 397 353.5 397C351.1 397 350.833 393.667 351 392C352.333 391.833 354.9 391.6 354.5 392C354.1 392.4 355.333 393.167 356 393.5C357 393.5 359.2 393.4 360 393C360.8 392.6 360 391.5 359.5 391C358 390.833 354.5 390.4 352.5 390C350.5 389.6 351.667 387.833 352.5 387L354 385.5C353.167 384.667 351.5 382.5 351.5 380.5C351.5 378.5 353.833 377.667 355 377.5Z" stroke="#00000F" style="stroke:#00000F;stroke:color(display-p3 0.0000 0.0000 0.0588);stroke-opacity:1;" stroke-width="2" stroke-linecap="round" stroke-linejoin="round"/>
<path d="M263.5 348.5L268 349C274 346 275 350.5 275.5 351C276 351.5 276 355.5 276 360.5C276 364.5 270.667 362.833 268 361.5V368H264L263.5 348.5Z" stroke="#00000F" style="stroke:#00000F;stroke:color(display-p3 0.0000 0.0000 0.0588);stroke-opacity:1;" stroke-width="2" stroke-linecap="round" stroke-linejoin="round"/>
<path d="M279.5 352V349H285C285 351.167 285.2 354.8 286 352C286.8 349.2 289.667 348.5 291 348.5V354.5C290 354.5 288 354.1 288 352.5L285 355.5V360H287.5V362.5L279 362V359.5L281.5 359V352.5L279.5 352Z" stroke="#00000F" style="stroke:#00000F;stroke:color(display-p3 0.0000 0.0000 0.0588);stroke-opacity:1;" stroke-width="2" stroke-linecap="round" stroke-linejoin="round"/>
<path d="M306 352.5C304.4 349.7 301 348.333 299.5 348C298.5 348 296 348.6 294 351C292 353.4 292.5 356.333 293 357.5C293.167 359.5 294.5 363.6 298.5 364C302.5 364.4 305.167 362.167 306 361C306.667 359.333 307.6 355.3 306 352.5Z" stroke="#00000F" style="stroke:#00000F;stroke:color(display-p3 0.0000 0.0000 0.0588);stroke-opacity:1;" stroke-width="2" stroke-linecap="round" stroke-linejoin="round"/>
<path d="M220.5 343L224.5 343.5V349.5C225.333 349.167 230.599 346.222 232.5 350.5C234.5 355 234 356 233 358.5C231.87 361.324 231 362 228.5 363C226.5 363.8 224.333 363.167 223.5 362.5H220.5V343Z" stroke="#00000F" style="stroke:#00000F;stroke:color(display-p3 0.0000 0.0000 0.0588);stroke-opacity:1;" stroke-width="2" stroke-linecap="round" stroke-linejoin="round"/>
<path d="M239 349.5H234L240 363L235.5 365C235 365.833 234.4 367.6 236 368C238 368.5 241.5 365.5 242.5 365C243.3 364.6 243.833 363.167 244 362.5L248 349.5H244L241 357.5L239 349.5Z" stroke="#00000F" style="stroke:#00000F;stroke:color(display-p3 0.0000 0.0000 0.0588);stroke-opacity:1;" stroke-width="2" stroke-linecap="round" stroke-linejoin="round"/>
<path d="M220.5 315L233 315.5V319H237H246L248 321L249 319.5L254 320L255.5 319H259C259.5 319.167 260.7 319.9 261.5 321.5C262.3 323.1 263.833 320.833 264.5 319.5L276 319L277.5 324.5C278.333 323.333 280.4 320.6 282 319C283.6 317.4 286.667 318.333 288 319C288.5 319.667 289.9 321 291.5 321C293.1 321 292.833 319.667 292.5 319L297.5 319.5L300 327L301 319.5H316L317 329.5H319.5L320 333L323 332.5V320L332.5 319.5C333 319.333 334.1 319.5 334.5 321.5C334.9 323.5 335 330 335 333H330C330.667 330.167 331.5 324.3 329.5 323.5C327 322.5 326 322.5 326.5 324C326.9 325.2 327 330.167 327 332.5L308.5 333.5V329.5L311.5 330V323.5L308.5 322.5L302.5 333L297.5 333.5L292.5 323.5L291.5 331.5C291 332.5 284 336.5 278 328L276 326L270.5 326.5L271 329.5L272.5 330L273 332.5H264L263.5 330H265.5L265 323.5H261L262 330.5C260.844 330.731 260.109 332.203 258.5 332.5C256.631 332.845 253.93 332 253.5 332C255.9 333.6 254.833 336.333 254 337.5L251 338L250 333.5L220.5 333V329.5L224 330V320H221L220.5 315Z" stroke="#00000F" style="stroke:#00000F;stroke:color(display-p3 0.0000 0.0000 0.0588);stroke-opacity:1;" stroke-width="2" stroke-linecap="round" stroke-linejoin="round"/>
<ellipse cx="314" cy="315.5" rx="3" ry="2.5" stroke="#00000F" style="stroke:#00000F;stroke:color(display-p3 0.0000 0.0000 0.0588);stroke-opacity:1;" stroke-width="2" stroke-linecap="round" stroke-linejoin="round"/>
<ellipse cx="285" cy="327" rx="1" ry="4" stroke="#00000F" style="stroke:#00000F;stroke:color(display-p3 0.0000 0.0000 0.0588);stroke-opacity:1;" stroke-width="2" stroke-linecap="round" stroke-linejoin="round"/>
<path d="M259 326C259 328.209 259.5 330.5 256.5 330C253 330.5 254 328.209 254 326C254 323.791 254 322 256.5 322C258.5 322 259 323.791 259 326Z" stroke="#00000F" style="stroke:#00000F;stroke:color(display-p3 0.0000 0.0000 0.0588);stroke-opacity:1;" stroke-width="2" stroke-linecap="round" stroke-linejoin="round"/>
<rect x="229" y="320" width="5" height="9" stroke="#00000F" style="stroke:#00000F;stroke:color(display-p3 0.0000 0.0000 0.0588);stroke-opacity:1;" stroke-width="2" stroke-linecap="round" stroke-linejoin="round"/>
<rect x="238" y="323" width="2" height="9" stroke="#00000F" style="stroke:#00000F;stroke:color(display-p3 0.0000 0.0000 0.0588);stroke-opacity:1;" stroke-width="2" stroke-linecap="round" stroke-linejoin="round"/>
<rect x="243" y="323" width="1" height="10" stroke="#00000F" style="stroke:#00000F;stroke:color(display-p3 0.0000 0.0000 0.0588);stroke-opacity:1;" stroke-width="2" stroke-linecap="round" stroke-linejoin="round"/>
<path d="M349 317.5L350.5 321L347 322C347.333 321.833 348.2 322.1 349 324.5C350 327.5 347.5 327.5 346.5 328C345.5 328.5 336 328.5 341.5 329C347 329.5 350.5 330.5 350.5 333C350.5 335 348.5 336.833 347.5 337.5C347.167 338 345.6 338.9 342 338.5C338.4 338.1 336.5 335.333 336 334H339.5L345.5 334.5L345 332L339.5 333L338 328.5C338 328.5 336 326.246 336 324.5C336 322.754 338 320.5 338 320.5C338.333 320.167 339.3 319.4 340.5 319C341.7 318.6 347 320 349 317.5Z" stroke="#00000F" style="stroke:#00000F;stroke:color(display-p3 0.0000 0.0000 0.0588);stroke-opacity:1;" stroke-width="2" stroke-linecap="round" stroke-linejoin="round"/>
<circle cx="343" cy="324" r="2" stroke="#00000F" style="stroke:#00000F;stroke:color(display-p3 0.0000 0.0000 0.0588);stroke-opacity:1;" stroke-width="2" stroke-linecap="round" stroke-linejoin="round"/>
<path d="M365.5 314.5V319L369.5 318.5L369 331C369.333 331.833 370.4 333.5 372 333.5C373.6 333.5 376.667 333.167 378 333V331L380.5 330.5L381 332.5L392.5 333V330H389.5L389 320H394L398.5 333H403.5L407.5 319.5H413C405.5 334.5 417.833 331.667 420.5 331.5L419.5 329H414L413.5 327H426L425 329L423.5 331C426.667 332.167 433.4 333.9 435 331.5C436.6 329.1 436.5 329.5 436 326.5L430 324.5L429 322.5L433.5 323L435.5 320.5C435.167 319.833 433.8 318.6 431 319C427.5 319.5 425 321 424.5 321C424 321 427.5 329.5 431 328.5C433.8 327.7 432.833 329.5 432 330.5C418 324.5 430 324.5 420 319.5C417.853 318.427 408 319.5 403.5 319.5L401.5 329L399 320L381 320.5V324H384.5V329.5H374L373.5 314L365.5 314.5Z" stroke="#00000F" style="stroke:#00000F;stroke:color(display-p3 0.0000 0.0000 0.0588);stroke-opacity:1;" stroke-width="2" stroke-linecap="round" stroke-linejoin="round"/>
<circle cx="386.5" cy="315.5" r="2.5" stroke="#00000F" style="stroke:#00000F;stroke:color(display-p3 0.0000 0.0000 0.0588);stroke-opacity:1;" stroke-width="2" stroke-linecap="round" stroke-linejoin="round"/>
<path d="M418.5 324.5C418.5 325.328 417.105 325 416 325C414.895 325 413.5 325.328 413.5 324.5C413.5 323.672 414.895 322 416 322C417.105 322 418.5 323.672 418.5 324.5Z" stroke="#00000F" style="stroke:#00000F;stroke:color(display-p3 0.0000 0.0000 0.0588);stroke-opacity:1;" stroke-width="2" stroke-linecap="round" stroke-linejoin="round"/>
<path d="M312 349.5L307.5 349L311.5 362H317L319.5 351.5L323.5 352.5H326V359.5H323V362.5L334.5 362L334 359.5H331L330.5 349.5H316.5L314.5 358.5L312 349.5Z" stroke="#00000F" style="stroke:#00000F;stroke:color(display-p3 0.0000 0.0000 0.0588);stroke-opacity:1;" stroke-width="2" stroke-linecap="round" stroke-linejoin="round"/>
<ellipse cx="329" cy="344.5" rx="2" ry="1.5" stroke="#00000F" style="stroke:#00000F;stroke:color(display-p3 0.0000 0.0000 0.0588);stroke-opacity:1;" stroke-width="2" stroke-linecap="round" stroke-linejoin="round"/>
<path d="M344.5 343H348.5L349 362H346C345.833 360.667 345.4 358.6 345 361C344.6 363.4 341.5 363 340 362.5C339 361.833 337 359.2 337 354C337 348.8 341.667 348.833 344 349.5L344.5 343Z" stroke="#00000F" style="stroke:#00000F;stroke:color(display-p3 0.0000 0.0000 0.0588);stroke-opacity:1;" stroke-width="2" stroke-linecap="round" stroke-linejoin="round"/>
<path d="M360 349.5H351.5V352.5H355V359L351.5 359.5L352 362.5H363.5V359.5H360V349.5Z" stroke="#00000F" style="stroke:#00000F;stroke:color(display-p3 0.0000 0.0000 0.0588);stroke-opacity:1;" stroke-width="2" stroke-linecap="round" stroke-linejoin="round"/>
<path d="M366 362L365.5 348.5H370.5C369.833 350.333 369.2 353.3 372 350.5C374.8 347.7 377.5 349.667 378.5 351V362L374 361.5C373.667 359.667 373 355.5 373 353.5C373 351.5 371.333 352.333 370.5 353L370 362H366Z" stroke="#00000F" style="stroke:#00000F;stroke:color(display-p3 0.0000 0.0000 0.0588);stroke-opacity:1;" stroke-width="2" stroke-linecap="round" stroke-linejoin="round"/>
<path d="M356.5 347C355.5 346 354.3 343.7 357.5 342.5C361.5 341 360 347.5 356.5 347Z" stroke="#00000F" style="stroke:#00000F;stroke:color(display-p3 0.0000 0.0000 0.0588);stroke-opacity:1;" stroke-width="2" stroke-linecap="round" stroke-linejoin="round"/>
<path d="M389 349L392.5 347L393.5 350.5C391.333 349.833 387.7 348.9 390.5 350.5C393.3 352.1 391.667 356.167 390.5 358H385.5V359.5C387.5 359.5 391.6 359.7 392 360.5C392.5 361.5 397 364 392.5 367C388.9 369.4 383.667 368.333 381.5 367.5L380 363.5C381.167 363.5 383.5 363.6 383.5 364C383.5 364.5 387 367 389 364.5C390.6 362.5 389 362 388 362C387.167 362.5 384.9 363.2 382.5 362C380.1 360.8 381.5 358.833 382.5 358C382 356.667 381 353.7 381 352.5C381 351.3 383 349.667 384 349H389Z" stroke="#00000F" style="stroke:#00000F;stroke:color(display-p3 0.0000 0.0000 0.0588);stroke-opacity:1;" stroke-width="2" stroke-linecap="round" stroke-linejoin="round"/>
<path d="M382 382L380.5 379C382 378 385.6 376 388 376C390.4 376 391.333 378 391.5 379L393 391.5H389.5L389 389.5C388.667 389.833 387.5 390.7 385.5 391.5C383.5 392.3 381.667 390.833 381 390C380.667 389.333 380 387.5 380 385.5C380 383.5 382.333 383 383.5 383C385 383 387.8 382.7 387 381.5C386.2 380.3 383.333 381.333 382 382Z" stroke="#00000F" style="stroke:#00000F;stroke:color(display-p3 0.0000 0.0000 0.0588);stroke-opacity:1;" stroke-width="2" stroke-linecap="round" stroke-linejoin="round"/>
<path d="M395.5 390.5V378.5C396.833 379.333 399.5 380.6 399.5 379C399.5 377.4 401.833 376.667 403 376.5H404.5C406.9 376.5 407.5 378.5 407.5 379.5L407 391L403 391.5V380.5C403 378.5 400.667 380 399.5 381V391.5L395.5 390.5Z" stroke="#00000F" style="stroke:#00000F;stroke:color(display-p3 0.0000 0.0000 0.0588);stroke-opacity:1;" stroke-width="2" stroke-linecap="round" stroke-linejoin="round"/>
<path d="M417 372.5L417.5 377.5C416.833 376.667 415 375.3 413 376.5C411 377.7 410.167 380 410 381V388C410 390 413.5 392 415 392C416.2 392 417.5 391.333 418 391H421.5L422 372.5H417Z" stroke="#00000F" style="stroke:#00000F;stroke:color(display-p3 0.0000 0.0000 0.0588);stroke-opacity:1;" stroke-width="2" stroke-linecap="round" stroke-linejoin="round"/>
<path d="M264.5 410.5V406.5H273L272.5 417L276.5 417.5V420.5L264.5 421V416.5L268.5 417L268 411L264.5 410.5Z" stroke="#00000F" style="stroke:#00000F;stroke:color(display-p3 0.0000 0.0000 0.0588);stroke-opacity:1;" stroke-width="2" stroke-linecap="round" stroke-linejoin="round"/>
<path d="M269 404.5H270.5C271.5 404.167 273.5 403.3 273.5 402.5C273.5 401.5 271 400.5 268.5 401C266.5 401.4 268 403.5 269 404.5Z" stroke="#00000F" style="stroke:#00000F;stroke:color(display-p3 0.0000 0.0000 0.0588);stroke-opacity:1;" stroke-width="2" stroke-linecap="round" stroke-linejoin="round"/>
<path d="M279 420.5L278.5 407L283 406.5L283.5 408C283.833 407.667 285.1 406.9 287.5 406.5C289.9 406.1 291.167 408 291.5 409L291 420.5L287 420C287 418 286.9 413.4 286.5 411C286.1 408.6 284.333 410.667 283.5 412L284 421L279 420.5Z" stroke="#00000F" style="stroke:#00000F;stroke:color(display-p3 0.0000 0.0000 0.0588);stroke-opacity:1;" stroke-width="2" stroke-linecap="round" stroke-linejoin="round"/>
<path d="M293.5 410V407L302 406.5L302.5 417.5L305.5 418V420.5H293.5V417H297.5V410.5L293.5 410Z" stroke="#00000F" style="stroke:#00000F;stroke:color(display-p3 0.0000 0.0000 0.0588);stroke-opacity:1;" stroke-width="2" stroke-linecap="round" stroke-linejoin="round"/>
<path d="M297.5 404.5H300.5C301 404.167 302 403.3 302 402.5C302 401.7 301.333 400.833 301 400.5C300.333 399.667 298.7 398.4 297.5 400C296.3 401.6 297 403.667 297.5 404.5Z" stroke="#00000F" style="stroke:#00000F;stroke:color(display-p3 0.0000 0.0000 0.0588);stroke-opacity:1;" stroke-width="2" stroke-linecap="round" stroke-linejoin="round"/>
<path d="M312 407.5H308V420H312.5C312 418.333 311.4 414.3 313 411.5C314.6 408.7 315.667 410.667 316 412V420H321V409.5C320 408.667 317.7 406.9 316.5 406.5C315.3 406.1 313 407 312 407.5Z" stroke="#00000F" style="stroke:#00000F;stroke:color(display-p3 0.0000 0.0000 0.0588);stroke-opacity:1;" stroke-width="2" stroke-linecap="round" stroke-linejoin="round"/>
<path d="M331.5 407L334.5 405L335.5 408.5L333 409C333.5 409 334.5 409.6 334.5 412C334.5 414.4 332.5 415.667 331.5 416L326.5 415.5V417.5C327.833 417.667 331.1 418 333.5 418C335.9 418 336.167 420.333 336 421.5C335 423.333 332.1 427 328.5 427C324.9 427 322.667 425.667 322 425V421.5L325.5 422C326.333 422.833 328.5 424.2 330.5 423C332.5 421.8 331.333 420.833 330.5 420.5H326C323 420.5 323.5 419 323 418C322.6 417.2 323.5 416 324 415.5C323.333 415.333 322 414.2 322 411C322 407.8 324.667 406.667 326 406.5L331.5 407Z" stroke="#00000F" style="stroke:#00000F;stroke:color(display-p3 0.0000 0.0000 0.0588);stroke-opacity:1;" stroke-width="2" stroke-linecap="round" stroke-linejoin="round"/>
<path d="M364 404.5L364.5 402C364 401.5 361 400.5 357.5 401.5C354.7 402.3 354.333 403.833 354.5 404.5L353.5 408L351.5 408.5V411.5L355.5 412V420.5L360 421L359.5 411H363.5V407.5H359C358.5 407.167 357.8 406.1 359 404.5C360.2 402.9 362.833 403.833 364 404.5Z" stroke="#00000F" style="stroke:#00000F;stroke:color(display-p3 0.0000 0.0000 0.0588);stroke-opacity:1;" stroke-width="2" stroke-linecap="round" stroke-linejoin="round"/>
<path d="M374.5 407.5L370 407C368.4 406.822 366.333 409.259 365.5 410.5C365.667 411.333 366 413.3 366 414.5C366 415.7 366.333 417.667 366.5 418.5C367.333 419.5 369.7 421.4 372.5 421C375.3 420.6 377 419.167 377.5 418.5C378.167 417.333 379.4 414.4 379 412C378.6 409.6 375.833 408 374.5 407.5Z" stroke="#00000F" style="stroke:#00000F;stroke:color(display-p3 0.0000 0.0000 0.0588);stroke-opacity:1;" stroke-width="2" stroke-linecap="round" stroke-linejoin="round"/>
<path d="M381 411L380.5 407L386 407.5C386 408.167 386.5 409.1 388.5 407.5C390.5 405.9 392 407.167 392.5 408V412.5H389.5C389.5 412 389.4 410.8 389 410C388.6 409.2 387.167 412.333 386.5 414V417.5H389.5L389 420L381 421V417.5L383.5 417L383 411H381Z" stroke="#00000F" style="stroke:#00000F;stroke:color(display-p3 0.0000 0.0000 0.0588);stroke-opacity:1;" stroke-width="2" stroke-linecap="round" stroke-linejoin="round"/>
<path d="M225 431.5L221 431V450H225L224.5 440C224.5 440 228.5 436 229 440L229.5 449.5L233.5 450L233 439.5C232 437 232 436 229 435.5C227 435.5 225 438 225 437.5V431.5Z" stroke="#00000F" style="stroke:#00000F;stroke:color(display-p3 0.0000 0.0000 0.0588);stroke-opacity:1;" stroke-width="2" stroke-linecap="round" stroke-linejoin="round"/>
<path d="M235.5 447.5V436.5C235.833 438.167 237 442.3 239 445.5C241 448.7 242.833 446.833 243.5 445.5L243 437L247 436.5L247.5 450.5H243.5L243 448.5L241 450.5C240.5 450.667 239.2 450.9 238 450.5C236.8 450.1 235.833 448.333 235.5 447.5Z" stroke="#00000F" style="stroke:#00000F;stroke:color(display-p3 0.0000 0.0000 0.0588);stroke-opacity:1;" stroke-width="2" stroke-linecap="round" stroke-linejoin="round"/>
<path d="M249.5 450L248.5 436.5L252.5 437.5C252.833 437 253.6 436 254 436C254.5 436 256.5 437.5 256.5 437C256.5 436.6 257.167 436.167 257.5 436H260.5C262.1 436 262.833 437.333 263 438L262.5 449.5H259.5C260 447.333 260.7 442.5 259.5 440.5C258.3 438.5 257.333 439.667 257 440.5V450H254.5C254.667 447.333 254.9 441.6 254.5 440C254.1 438.4 252.667 440.333 252 441.5L252.5 450H249.5Z" stroke="#00000F" style="stroke:#00000F;stroke:color(display-p3 0.0000 0.0000 0.0588);stroke-opacity:1;" stroke-width="2" stroke-linecap="round" stroke-linejoin="round"/>
<path d="M265 439.5V436.5C266.333 436.5 269.6 436.4 272 436C274.4 435.6 275.333 437.5 275.5 438.5L276 447L275.5 450.5H272V449C271.167 449.333 269 450 267 450C265 450 264.5 448.333 264.5 447.5C264.667 446.333 265.1 443.7 265.5 442.5C265.9 441.3 267.333 441.333 268 441.5C268.667 442 270.3 442.7 271.5 441.5C272.7 440.3 271.667 439.667 271 439.5H265Z" stroke="#00000F" style="stroke:#00000F;stroke:color(display-p3 0.0000 0.0000 0.0588);stroke-opacity:1;" stroke-width="2" stroke-linecap="round" stroke-linejoin="round"/>
<path d="M279 450V436.5L282.5 437.5L285 436.5C285.5 436.5 286.7 436.4 287.5 436C288.3 435.6 289.833 437.167 290.5 438L291 449L287 450C287.5 447.667 288.2 442.5 287 440.5C285.8 438.5 283.833 440 283 441L283.5 450H279Z" stroke="#00000F" style="stroke:#00000F;stroke:color(display-p3 0.0000 0.0000 0.0588);stroke-opacity:1;" stroke-width="2" stroke-linecap="round" stroke-linejoin="round"/>
<path d="M233 468.5C232.2 466.1 229.333 464.833 228 464.5C227.5 464.333 226 464.2 224 465C222 465.8 220.833 467.667 220.5 468.5C220.333 469.833 220.1 472.9 220.5 474.5C220.9 476.1 222.667 477.833 223.5 478.5C224.667 478.833 227.5 479.4 229.5 479C231.5 478.6 232.667 476.5 233 475.5C233.333 474.167 233.8 470.9 233 468.5Z" stroke="#00000F" style="stroke:#00000F;stroke:color(display-p3 0.0000 0.0000 0.0588);stroke-opacity:1;" stroke-width="2" stroke-linecap="round" stroke-linejoin="round"/>
<path d="M235.5 475H237.5V468.5H235.5L235 465.5L241.5 465L242 468L242.5 465.5H247L247.5 470.5H245.5C245.5 470 245.2 469 244 469C242.8 469 241.833 471.333 241.5 472.5V475.5H244.5V478.5H235.5V475Z" stroke="#00000F" style="stroke:#00000F;stroke:color(display-p3 0.0000 0.0000 0.0588);stroke-opacity:1;" stroke-width="2" stroke-linecap="round" stroke-linejoin="round"/>
<path d="M249.5 471V468L254 464.5H259L261.5 463.5L263 466.5L260.5 467.5L262 468.5V472L259 474H255C254.167 474.667 253 475.9 255 475.5C257 475.1 259.833 476 261 476.5C261.833 477.333 263.1 479.6 261.5 482C259.9 484.4 257.167 484 256 483.5C255.333 483.5 253.4 483.4 251 483C248.6 482.6 248.333 480.167 248.5 479L253.5 479.5C254.167 480.833 255.9 483 257.5 481C259.1 479 258.167 478.5 257.5 478.5C256 478.667 252.7 478.8 251.5 478C250.3 477.2 251 475.333 251.5 474.5C251.833 473.833 252.3 472.5 251.5 472.5C250.7 472.5 249.833 471.5 249.5 471Z" stroke="#00000F" style="stroke:#00000F;stroke:color(display-p3 0.0000 0.0000 0.0588);stroke-opacity:1;" stroke-width="2" stroke-linecap="round" stroke-linejoin="round"/>
<path d="M264.5 466.5L266 469L270.5 467.5L271 469L270.5 470.5H266.5C266.1 470.5 264.667 471.833 264 472.5V476C264 476.8 265.667 478.333 266.5 479H271L274 477V478.5H276.5V475H275.5C275.333 473.167 275 469.1 275 467.5C275 465.9 273 465.167 272 465H267C266.2 465 265 466 264.5 466.5Z" stroke="#00000F" style="stroke:#00000F;stroke:color(display-p3 0.0000 0.0000 0.0588);stroke-opacity:1;" stroke-width="2" stroke-linecap="round" stroke-linejoin="round"/>
<path d="M279 477.5L278.5 465L283 464.5V467C283.333 466.5 284.6 465.4 287 465C289.4 464.6 290.333 465.833 290.5 466.5V477.5H286C286.167 476 286.5 472.2 286.5 469C286.5 465.8 284.167 468.333 283 470V478L279 477.5Z" stroke="#00000F" style="stroke:#00000F;stroke:color(display-p3 0.0000 0.0000 0.0588);stroke-opacity:1;" stroke-width="2" stroke-linecap="round" stroke-linejoin="round"/>
<path d="M293.5 468.5V465H301.5V475L305 475.5V478.5H293.5L293 475H297V468.5H293.5Z" stroke="#00000F" style="stroke:#00000F;stroke:color(display-p3 0.0000 0.0000 0.0588);stroke-opacity:1;" stroke-width="2" stroke-linecap="round" stroke-linejoin="round"/>
<path d="M297 459.5V461.5C297.167 461.667 297.8 462.2 299 463C300.2 463.8 301.167 463 301.5 462.5V459.5C301.333 459.167 300.7 458.4 299.5 458C298.3 457.6 297.333 458.833 297 459.5Z" stroke="#00000F" style="stroke:#00000F;stroke:color(display-p3 0.0000 0.0000 0.0588);stroke-opacity:1;" stroke-width="2" stroke-linecap="round" stroke-linejoin="round"/>
<path d="M308 468.5L307.5 465H319.5V468L314 475H319V478.5H308V475L314 468.5H308Z" stroke="#00000F" style="stroke:#00000F;stroke:color(display-p3 0.0000 0.0000 0.0588);stroke-opacity:1;" stroke-width="2" stroke-linecap="round" stroke-linejoin="round"/>
<path d="M323.5 469L322.5 466C324.833 465.833 329.9 465.4 331.5 465C333.1 464.6 333.833 466.833 334 468L334.5 479L330.5 478.5L330 477L328 478.5H324C322.8 478.5 322.5 477.167 322.5 476.5C322.5 475.5 322.6 473.2 323 472C323.4 470.8 324.833 470.5 325.5 470.5H328.5C328.667 470.167 329 469.2 329 468C329 466.8 325.333 468.167 323.5 469Z" stroke="#00000F" style="stroke:#00000F;stroke:color(display-p3 0.0000 0.0000 0.0588);stroke-opacity:1;" stroke-width="2" stroke-linecap="round" stroke-linejoin="round"/>
<path d="M337.5 468H339.5C339.167 471.167 339.3 477.8 342.5 479C345.7 480.2 347.833 478.833 348.5 478V476C348 475.333 346.8 474.2 346 475C345.2 475.8 344 474.333 343.5 473.5L344 468H347.5L348 465.5L343.5 464.5V462.5H339.5V466L337.5 465.5V468Z" stroke="#00000F" style="stroke:#00000F;stroke:color(display-p3 0.0000 0.0000 0.0588);stroke-opacity:1;" stroke-width="2" stroke-linecap="round" stroke-linejoin="round"/>
<path d="M352 468L351.5 465L360.5 465.5L359.5 475.5L363 476L363.5 479L351.5 479.5V475L356 475.5L355.5 468.5L352 468Z" stroke="#00000F" style="stroke:#00000F;stroke:color(display-p3 0.0000 0.0000 0.0588);stroke-opacity:1;" stroke-width="2" stroke-linecap="round" stroke-linejoin="round"/>
<path d="M355 460V462C356.5 462 359.6 461.8 360 461C360.5 460 359 459.5 357.5 458.5C356.3 457.7 355.333 459.167 355 460Z" stroke="#00000F" style="stroke:#00000F;stroke:color(display-p3 0.0000 0.0000 0.0588);stroke-opacity:1;" stroke-width="2" stroke-linecap="round" stroke-linejoin="round"/>
<path d="M374.5 464L369 464.5L366 468.5V475C366 477 368.333 478.167 369.5 478.5C370.167 478.833 372.1 479.3 374.5 478.5C376.9 477.7 378.167 475.833 378.5 475C379 473.333 379.7 469.6 378.5 468C377.3 466.4 375.333 464.667 374.5 464Z" stroke="#00000F" style="stroke:#00000F;stroke:color(display-p3 0.0000 0.0000 0.0588);stroke-opacity:1;" stroke-width="2" stroke-linecap="round" stroke-linejoin="round"/>
<path d="M380.5 478L381 465L384.5 466L386.5 465C387 464.833 388.4 464.6 390 465C391.6 465.4 392 466.833 392 467.5V478H387.5C387.5 475.167 387.4 469.3 387 468.5C386.6 467.7 385.5 469.5 385 470.5L384.5 477.5L380.5 478Z" stroke="#00000F" style="stroke:#00000F;stroke:color(display-p3 0.0000 0.0000 0.0588);stroke-opacity:1;" stroke-width="2" stroke-linecap="round" stroke-linejoin="round"/>
<rect x="203" y="596" width="787" height="16" stroke="#00000F" style="stroke:#00000F;stroke:color(display-p3 0.0000 0.0000 0.0588);stroke-opacity:1;" stroke-width="2" stroke-linecap="round" stroke-linejoin="round"/>
<rect x="203" y="612" width="787" height="16" stroke="#00000F" style="stroke:#00000F;stroke:color(display-p3 0.0000 0.0000 0.0588);stroke-opacity:1;" stroke-width="2" stroke-linecap="round" stroke-linejoin="round"/>
<path d="M912.5 494.5L950.5 503M950.5 503L947 574M950.5 503L985.5 341" stroke="#00000F" style="stroke:#00000F;stroke:color(display-p3 0.0000 0.0000 0.0588);stroke-opacity:1;" stroke-width="2" stroke-linecap="round" stroke-linejoin="round"/>
<path d="M826 478L858 486L866.5 436.5M833.5 405H868.5M868.5 405L873 373M868.5 405L923.5 407.5M880.5 255L883.5 234.5M903 233.5L849.5 238M923.5 407.5L929 362.5M923.5 407.5L911.5 496.5" stroke="#00000F" style="stroke:#00000F;stroke:color(display-p3 0.0000 0.0000 0.0588);stroke-opacity:1;" stroke-width="2" stroke-linecap="round" stroke-linejoin="round"/>
<path d="M511.5 225L516.5 260.5L546 263.043M600.5 229L603.5 268L575.5 265.586M575.5 265.586L572.5 228M575.5 265.586L546 263.043M546 263.043L545.5 232.5" stroke="#00000F" style="stroke:#00000F;stroke:color(display-p3 0.0000 0.0000 0.0588);stroke-opacity:1;" stroke-width="2" stroke-linecap="round" stroke-linejoin="round"/>
<path d="M399.5 62L402.5 52.5H404.5L409 62L408.5 53H414C414.833 53.1667 416.1 54.1 414.5 56.5C413.7 58.5 416.833 60.6667 418.5 61.5H422C422.5 61.6667 423 61 424 60C424.8 60.4 425.667 61.5 426 62H430.5C430.667 61.5 431.1 60.4 431.5 60C431.9 59.6 432 56.1667 432 54.5H435L435.5 62H437.5V55L440.5 54.5V52.5H429.5V58.5C429.167 59.6667 428.2 61.3 427 58.5C427 55.7 427 53.3333 427 52.5H424V54.5L421.5 52C420.167 51.6667 417.3 51.6 416.5 54C415.5 57 417 61.5 414.5 62C412.5 62 408 62 406 62L405.5 60L403 60.5L402 62H399.5ZM403.5 55.5L403 58.5L405 58L403.5 55.5ZM410.5 54.5H413V55.5L410 56L410.5 54.5ZM410.5 58L412.5 57.5L413.5 60H410.5V58ZM419 54V59.5C420 60 421.9 60.6 421.5 59C421.1 57.4 421.667 55.6667 422 55C421.667 54.1667 420.6 52.8 419 54Z" stroke="#00000F" style="stroke:#00000F;stroke:color(display-p3 0.0000 0.0000 0.0588);stroke-opacity:1;" stroke-width="2" stroke-linecap="round" stroke-linejoin="round"/>
<path d="M463.5 52.5H455V61.5H461.5V59.5H457.5V58L460.5 57.5V56L458 55.5L457.5 54.5H460.5L464.5 62H467.5L471 55L471.5 62.5L481.5 62V57.5L483.5 61.5L486 62V55H489L489.5 61.5H492V54.5L494.5 54C494.667 54.5 495.1 55.7 495.5 56.5C495.9 57.3 498.333 57.8333 499.5 58C499.5 58.6667 499.4 60 499 60C498.6 60 496.833 59.3333 496 59C495.667 59.3333 495 60.2 495 61C495 61.8 496 62 496.5 62L501.5 61V56.5C501.5 54.9 499.167 54.5 498 54.5H501.5C501.9 53.3 500.667 52.3333 500 52L483.5 52.5L484 58L481.5 52.5L468 53L466 58.5L463.5 52.5Z" stroke="#00000F" style="stroke:#00000F;stroke:color(display-p3 0.0000 0.0000 0.0588);stroke-opacity:1;" stroke-width="2" stroke-linecap="round" stroke-linejoin="round"/>
<rect x="474" y="54" width="4" height="2" stroke="#00000F" style="stroke:#00000F;stroke:color(display-p3 0.0000 0.0000 0.0588);stroke-opacity:1;" stroke-width="2" stroke-linecap="round" stroke-linejoin="round"/>
<rect x="474" y="58" width="4" height="2" stroke="#00000F" style="stroke:#00000F;stroke:color(display-p3 0.0000 0.0000 0.0588);stroke-opacity:1;" stroke-width="2" stroke-linecap="round" stroke-linejoin="round"/>
<path d="M523.5 53.5C522.7 51.9 519.5 52.5 518 53C517.333 54.6667 516 58.3 516 59.5C516 60.7 517 61.3333 517.5 61.5L523.5 62L524.5 60.5C525.667 61 528.3 62 529.5 62C530.7 62 531.667 61 532 60.5V61.5H535L536 60.5L538 61.5L542.5 62L544.5 60.5L545.5 61.5L548 62L548.5 60L550 62L554 62.5L557 60.5V62H559.5L559 56.5L561 62L564 62.5V55H567V60L565.5 60.5L566 62H572V60.5L570 59L569.5 55.5H575L575.5 61.5H578L577.5 54.5H580L583.5 57.5V61.5H586.5V57L589.5 52.5H586L584.5 55L583 53H562L561.5 57L560 52.5L554 53C554.333 54.3333 554.8 57.4 554 59C553.2 60.6 551.667 59.6667 551 59V53L545 52.5L544.5 55L543.5 52.5H536.5L535.5 53.5L535 52.5H532.5C532.167 53.1667 531.3 54.2 530.5 53C529.7 51.8 526.833 52.1667 525.5 52.5C525.167 53.5 524.3 55.1 523.5 53.5Z" stroke="#00000F" style="stroke:#00000F;stroke:color(display-p3 0.0000 0.0000 0.0588);stroke-opacity:1;" stroke-width="2" stroke-linecap="round" stroke-linejoin="round"/>
<path d="M534.5 58.5V61.5M537.5 58.5V61M543 59V61" stroke="#00000F" style="stroke:#00000F;stroke:color(display-p3 0.0000 0.0000 0.0588);stroke-opacity:1;" stroke-width="2" stroke-linecap="round" stroke-linejoin="round"/>
<path d="M628 52.5H622V59.5H616.5L616 52.5H613.5V60.5L610 52.5H607L603 60C602.5 60.1667 601.3 60.3 600.5 59.5C599.5 58.5 600 55.5 600.5 54.5C600.9 53.7 603 54.1667 604 54.5L604.5 53C603.5 52.5 602.326 51.5216 599 53C594.5 55 597.5 60.8333 599.5 62.5H607L608 60H609.5L610.5 62H620L622.5 60.5V62H632V58L633.5 62L642.5 62.5L644 61V62H647.5L649.5 60.5L650.5 62H657L657.5 59.5L659 61.5H661.5C661.167 61 660.3 59.7 659.5 58.5C661.5 55.7 660 53.3333 659 52.5H654V61.5L650 53H647.5C646.5 56.1667 644.6 61.5 645 57.5C645.4 53.5 643.167 52.5 642 52.5H634L634.5 57.5L632 52.5H629.5M628 52.5V54H624.5V56H628V58H624.5V60H629.5V52.5M628 52.5H629.5M608.5 56L607.5 58H609.5L608.5 56ZM640 55L640.5 60H641C641.833 59.6667 643.3 58.3 642.5 55.5C641.3 54.3 640.333 54.6667 640 55ZM649 56L648 58.5H650L649 56ZM656 54.5V56.5H658C658.667 56.1667 659.6 55.2 658 54C656.4 52.8 656 53.8333 656 54.5Z" stroke="#00000F" style="stroke:#00000F;stroke:color(display-p3 0.0000 0.0000 0.0588);stroke-opacity:1;" stroke-width="2" stroke-linecap="round" stroke-linejoin="round"/>
<path d="M692.5 52.5H696.5C697.333 52.6667 698.9 53.2 698.5 54C698.1 54.8 697 54.6667 696.5 54.5C695.833 54.1667 694.4 53.8 694 55C693.6 56.2 695.5 56.1667 696.5 56C697.167 55.8333 698.5 55.9 698.5 57.5C698.5 59.1 697.833 60.5 697.5 61L692.5 61.5L691.5 60.5L693 59L693.5 59.5C694.5 59.6667 696.4 59.8 696 59C695.5 58 694 58.5 693 57.5C692.2 56.7 692.333 53.8333 692.5 52.5ZM692.5 52.5H690.25M690.25 52.5H688C688 54 688 57.4 688 59C687.2 60.2 686 59.5 685.5 59V52.5H683C682.667 54.1667 682.1 57.1 682.5 55.5C682.9 53.9 681.667 52.8333 681 52.5H675L675.5 62C677 62 680.2 62 681 62C681.8 62 682.667 60.6667 683 60C683.333 60.5 684.2 61.6 685 62C685.8 62.4 688 62.5 689 62.5L690.5 60L690.25 52.5ZM678 54.5H679.5C680 54.8333 680.7 55.5 679.5 55.5C678.3 55.5 678 54.8333 678 54.5ZM677.5 57.5H679.5C680 58 680.7 59.2 679.5 60C678.3 60.8 678 60.3333 678 60L677.5 57.5ZM699.5 52.5V54L701.5 54.5V59.5L699.5 60V61.5L710 62V59L711.5 62H714.5V52.5H712V55.5L710 52.5H707V60H704V55L706 54.5V52L699.5 52.5ZM722 52H716L716.5 62L730 61.5C731 60.8333 732.4 59.1 730 57.5C727 55.5 729.5 58 726 55.5C723.2 53.5 726.5 53.6667 728.5 54L730.5 52.5C729.667 51.8333 727.4 50.9 725 52.5C722.6 54.1 723.333 56.1667 724 57L727.5 58.5C728.167 58.8333 729.1 59.6 727.5 60C725.9 60.4 721.167 60.1667 719 60V58H722.5V56L719 55.5V54H722V52ZM739.5 54L737 54.5C736.333 53.8333 734.8 52.9 734 54.5C733.2 56.1 735.667 56.1667 737 56C737.833 56 739.4 56.3 739 57.5C739.4 58.3 738.5 60.5 738 61.5H733L732 60.5L733.5 59L734.5 59.5C735.167 59.6667 736.5 59.9 736.5 59.5C736.5 59 736 58 733 57.5C730.6 57.1 731.667 54 732.5 52.5C733.833 52 736.8 51.3 738 52.5C738.4 52.5 739.167 53.5 739.5 54Z" stroke="#00000F" style="stroke:#00000F;stroke:color(display-p3 0.0000 0.0000 0.0588);stroke-opacity:1;" stroke-width="2" stroke-linecap="round" stroke-linejoin="round"/>
<path d="M787.5 53L789 52.9M787.5 53V54.5H785L785.5 62H782.5L782 55L780.5 54.5L780 53M787.5 53H780M789 52.9L795 52.5H801.5C802.5 52.5 804 53 804 55C804.4 53 805.833 52.5 806.5 52.5C807.667 52.3333 810.2 52.1 811 52.5C811.8 52.9 811.333 54 811 54.5C810.5 54.1667 809.4 53.6 809 54C807.8 54 806.833 54 806.5 54L807 55C808.333 55.1667 811.1 55.8 811.5 57C811.9 58.2 811.667 59.8333 811.5 60.5C811.333 60.8333 810.7 61.6 809.5 62C808.3 62.4 805.667 61.8333 804.5 61.5L802 62L800 59.5L799.5 61.5H789V52.9ZM780 53H779M779 53H776.5L776 56L775 52.5H771.5C771.5 53.5 771.5 55.3 771.5 54.5C771.5 53.7 770.167 53.1667 769.5 53H764L763.5 59.5L760.5 52.5L758.5 52L755 61L757.5 61.5L758.5 59.5H760L760.5 61.5H767V59.5L769 61.5H775V58.5L776.5 61.5H779V53ZM759 55.5V58H761M748 52H753.5C754.667 53.3333 756.3 56.6 753.5 59C751.9 59 750.833 59 750.5 59V61.5H748V52ZM750 54V57H751.5C752 56.5 752.7 55.2 751.5 54C750.3 52.8 750 53.5 750 54Z" stroke="#00000F" style="stroke:#00000F;stroke:color(display-p3 0.0000 0.0000 0.0588);stroke-opacity:1;" stroke-width="2" stroke-linecap="round" stroke-linejoin="round"/>
<path d="M795 52.5V54.5H791L791.5 55.5H794.5V57.5H791L791.5 59.5H795.5V61.5L796 52.5M766.5 55H768.5C769 55.3333 769.7 56.1 768.5 56.5C767.3 56.9 766.667 55.6667 766.5 55Z" stroke="#00000F" style="stroke:#00000F;stroke:color(display-p3 0.0000 0.0000 0.0588);stroke-opacity:1;" stroke-width="2" stroke-linecap="round" stroke-linejoin="round"/>
<path d="M771.5 57.5V59.5L770 58M798.5 54.5H801C801.833 55 803 56.1 801 56.5C799 56.9 798.833 56.6667 799 56.5L798.5 54.5ZM804 56.5C803.667 57 802.8 58 802 58C801.2 58 802.667 59 803.5 59.5C805.5 59.8333 809.3 60.3 808.5 59.5C807.7 58.7 807.833 58.1667 808 58L804 56.5Z" stroke="#00000F" style="stroke:#00000F;stroke:color(display-p3 0.0000 0.0000 0.0588);stroke-opacity:1;" stroke-width="2" stroke-linecap="round" stroke-linejoin="round"/>
<path d="M844.5 56V54.5H846.5M844 58L847 58.5M827 52.5V54.5H830V59C829.833 59.6667 829.2 60.7 828 59.5C827.6 59.5 826.5 59.1667 826 59V62C827.833 62.3333 831.6 62.7 832 61.5C832.4 60.3 832.833 59.6667 833 59.5C833.167 60.1667 833.8 61.5 835 61.5C836.2 61.5 838.5 61.5 839.5 61.5C840.333 61.5 842 61.1 842 59.5C842 57.9 842 60.5 842 62H847.5C848.5 62 850.3 61.7 849.5 60.5C848.7 59.3 850.167 61 851 62L856 61.5C857.333 60.6667 859.2 58.7 856 57.5C852.8 56.3 852.333 55.3333 852.5 55C852.333 54.8333 852.2 54.4 853 54C853.8 53.6 856 53.8333 857 54L857.5 52C855.5 51.5 851.4 50.9 851 52.5C850.6 54.1 851.167 56.5 851.5 57.5C852.167 58.1667 853.7 59.4 854.5 59C855.3 58.6 851.5 58.5 849.5 58.5L848 57C848.4 56.2 848.167 54.3333 848 53.5L842 52.5L842.5 56.5C842.333 54.5 841.3 50.8 838.5 52C834.9 52 834 53.3333 834 54L833.5 57.5L833 52.5L827 52.5ZM836.5 55.5C837 54.8333 838.2 53.9 839 55.5C839.8 57.1 839.333 58.1667 839 58.5C838.667 59.1667 837.7 60.2 836.5 59C835 57.5 836.019 56 836.5 55.5Z" stroke="#00000F" style="stroke:#00000F;stroke:color(display-p3 0.0000 0.0000 0.0588);stroke-opacity:1;" stroke-width="2" stroke-linecap="round" stroke-linejoin="round"/>
<path d="M898.5 55.5V54.5H900.5M915 54.5V56.5C915.667 56.5 917 56.4 917 56C917 55.6 916.667 54.8333 916.5 54.5H914.5M871 62H873.5V60H876V62H890V60.5H892L892.5 62H901.5C902.167 62.1667 903.5 62.1 903.5 60.5C903.5 58.9 903.5 58.1667 903.5 58C903.5 57.5 903.3 56.6 902.5 57C901.5 57.5 904 57 903.5 56C903 55 904.5 54 902 53C900 52.2 897.167 52.3333 896 52.5L895.5 54L895 52.5L892 53V54L891 53L888 52.5L887.5 60H883V58.5L887 58L886.5 55.5L883 56V54L887.5 54.5L887 52L876.5 52.5L875 56.5L874.5 52.5H871V62ZM898.5 60V58H900C900.667 58.3333 901.6 59.2 900 60C898.4 60.8 898.333 60.3333 898.5 60ZM904.5 52.5L905 62H914.5V58.5L917.5 62H926.5C927.167 60.8333 928.1 58.1 926.5 56.5C924.5 55.3 923.667 55.3333 923.5 55.5C922.833 55.1667 921.8 54.4 923 54C924.2 53.6 924.833 54.1667 925 54.5H927V53C925.5 52.1667 922.2 50.9 921 52.5C919.8 54.1 919.833 54.8333 920 55C920.5 56 922 58 924 58C926.5 58 925.5 60.5 924 60C922.8 59.6 922.833 59.1667 923 59H918.5L919.5 56.5C919.5 55 919.2 52.1 918 52.5C916.4 52.1 913.667 52.6667 912.5 53L912 60H907.5V58L910.5 57.5V56H907.5V54.5H911V52.5L904.5 52.5Z" stroke="#00000F" style="stroke:#00000F;stroke:color(display-p3 0.0000 0.0000 0.0588);stroke-opacity:1;" stroke-width="2" stroke-linecap="round" stroke-linejoin="round"/>
<path d="M879.5 52.5V61.5M895.5 57V61.5" stroke="#00000F" style="stroke:#00000F;stroke:color(display-p3 0.0000 0.0000 0.0588);stroke-opacity:1;" stroke-width="2" stroke-linecap="round" stroke-linejoin="round"/>
</svg>
