<?xml version="1.0" encoding="UTF-8"?><svg id="abord4" xmlns="http://www.w3.org/2000/svg" viewBox="0 0 400 400"><g id="Layer_37"><rect x="300" y="300" width="100" height="100" fill="#7f3f98" stroke-width="0"/><polygon points="350 325 350 350 325 350 350 375 350 400 400 400 400 350 375 350 350 325" fill="#fff" opacity="0" stroke-width="0"/><polygon points="350 300 375 325 400 350 400 325 375 300 350 300" fill="#fff" opacity="0" stroke-width="0"/><polygon points="300 350 300 375 325 400 350 400 325 375 300 350" fill="#fff" opacity="0" stroke-width="0"/><polygon points="376.21 300.5 399.5 300.5 399.5 323.79 376.21 300.5" stroke-width="0"/><path d="M399,301v21.59l-21.59-21.59h21.59M400,300h-25l25,25v-25h0Z" fill="#ec008c" stroke-width="0"/><path d="M300.5,349.79v-49.29h49.29l49,49h-23.59l-24.85-24.85c-.1-.1-.22-.15-.35-.15-.06,0-.13.01-.19.04-.19.08-.31.26-.31.46v24.5h-24.5c-.2,0-.38.12-.46.31-.08.19-.03.4.11.54l24.85,24.85v23.59l-49-49Z" stroke-width="0"/><path d="M349.59,301l24.71,24.71,23.29,23.29h-22.17l-24.71-24.71c-.19-.19-.45-.29-.71-.29-.13,0-.26.02-.38.08-.37.15-.62.52-.62.92v24h-24c-.4,0-.77.24-.92.62-.15.37-.07.8.22,1.09l24.71,24.71v22.17l-23.29-23.29-24.71-24.71v-48.59h48.59M350,300h-50v50l25,25,25,25v-25l-25-25h25v-25l25,25h25l-25-25-25-25h0Z" fill="#ec008c" stroke-width="0"/><polygon points="300.5 399.5 300.5 376.21 323.79 399.5 300.5 399.5" stroke-width="0"/><path d="M301,377.41l21.59,21.59h-21.59v-21.59M300,375v25h25l-25-25h0Z" fill="#ec008c" stroke-width="0"/></g><g id="Layer_36"><rect x="200" y="300" width="100" height="100" fill="#21409a" stroke-width="0"/><polygon points="250 325 250 350 225 350 250 375 250 400 300 400 300 350 275 350 250 325" fill="#fff" opacity="0" stroke-width="0"/><polygon points="250 300 275 325 300 350 300 325 275 300 250 300" fill="#fff" opacity="0" stroke-width="0"/><polygon points="200 350 200 375 225 400 250 400 225 375 200 350" fill="#fff" opacity="0" stroke-width="0"/><polygon points="276.21 300.5 299.5 300.5 299.5 323.79 276.21 300.5" stroke-width="0"/><path d="M299,301v21.59l-21.59-21.59h21.59M300,300h-25l25,25v-25h0Z" fill="#ec008c" stroke-width="0"/><path d="M200.5,349.79v-49.29h49.29l49,49h-23.59l-24.85-24.85c-.1-.1-.22-.15-.35-.15-.06,0-.13.01-.19.04-.19.08-.31.26-.31.46v24.5h-24.5c-.2,0-.38.12-.46.31-.08.19-.03.4.11.54l24.85,24.85v23.59l-49-49Z" stroke-width="0"/><path d="M249.59,301l24.71,24.71,23.29,23.29h-22.17l-24.71-24.71c-.19-.19-.45-.29-.71-.29-.13,0-.26.02-.38.08-.37.15-.62.52-.62.92v24h-24c-.4,0-.77.24-.92.62-.15.37-.07.8.22,1.09l24.71,24.71v22.17l-23.29-23.29-24.71-24.71v-48.59h48.59M250,300h-50v50l25,25,25,25v-25l-25-25h25v-25l25,25h25l-25-25-25-25h0Z" fill="#ec008c" stroke-width="0"/><polygon points="200.5 399.5 200.5 376.21 223.79 399.5 200.5 399.5" stroke-width="0"/><path d="M201,377.41l21.59,21.59h-21.59v-21.59M200,375v25h25l-25-25h0Z" fill="#ec008c" stroke-width="0"/></g><g id="Layer_35"><rect x="100" y="300" width="100" height="100" fill="#00a14b" stroke-width="0"/><polygon points="150 325 150 350 125 350 150 375 150 400 200 400 200 350 175 350 150 325" fill="#fff" opacity="0" stroke-width="0"/><polygon points="150 300 175 325 200 350 200 325 175 300 150 300" fill="#fff" opacity="0" stroke-width="0"/><polygon points="100 350 100 375 125 400 150 400 125 375 100 350" fill="#fff" opacity="0" stroke-width="0"/><polygon points="176.21 300.5 199.5 300.5 199.5 323.79 176.21 300.5" stroke-width="0"/><path d="M199,301v21.59l-21.59-21.59h21.59M200,300h-25l25,25v-25h0Z" fill="#ec008c" stroke-width="0"/><path d="M100.5,349.79v-49.29h49.29l49,49h-23.59l-24.85-24.85c-.1-.1-.22-.15-.35-.15-.06,0-.13.01-.19.04-.19.08-.31.26-.31.46v24.5h-24.5c-.2,0-.38.12-.46.31-.08.19-.03.4.11.54l24.85,24.85v23.59l-49-49Z" stroke-width="0"/><path d="M149.59,301l24.71,24.71,23.29,23.29h-22.17l-24.71-24.71c-.19-.19-.45-.29-.71-.29-.13,0-.26.02-.38.08-.37.15-.62.52-.62.92v24h-24c-.4,0-.77.24-.92.62-.15.37-.07.8.22,1.09l24.71,24.71v22.17l-23.29-23.29-24.71-24.71v-48.59h48.59M150,300h-50v50l25,25,25,25v-25l-25-25h25v-25l25,25h25l-25-25-25-25h0Z" fill="#ec008c" stroke-width="0"/><polygon points="100.5 399.5 100.5 376.21 123.79 399.5 100.5 399.5" stroke-width="0"/><path d="M101,377.41l21.59,21.59h-21.59v-21.59M100,375v25h25l-25-25h0Z" fill="#ec008c" stroke-width="0"/></g><g id="Layer_34"><rect y="300" width="100" height="100" fill="#ffde17" stroke-width="0"/><polygon points="50 325 50 350 25 350 50 375 50 400 100 400 100 350 75 350 50 325" fill="#fff" opacity="0" stroke-width="0"/><polygon points="50 300 75 325 100 350 100 325 75 300 50 300" fill="#fff" opacity="0" stroke-width="0"/><polygon points="0 350 0 375 25 400 50 400 25 375 0 350" fill="#fff" opacity="0" stroke-width="0"/><polygon points="76.21 300.5 99.5 300.5 99.5 323.79 76.21 300.5" stroke-width="0"/><path d="M99,301v21.59l-21.59-21.59h21.59M100,300h-25l25,25v-25h0Z" fill="#ec008c" stroke-width="0"/><path d="M.5,349.79v-49.29h49.29l49,49h-23.59l-24.85-24.85c-.1-.1-.22-.15-.35-.15-.06,0-.13.01-.19.04-.19.08-.31.26-.31.46v24.5h-24.5c-.2,0-.38.12-.46.31-.08.19-.03.4.11.54l24.85,24.85v23.59L.5,349.79Z" stroke-width="0"/><path d="M49.59,301l24.71,24.71,23.29,23.29h-22.17l-24.71-24.71c-.19-.19-.45-.29-.71-.29-.13,0-.26.02-.38.08-.37.15-.62.52-.62.92v24h-24c-.4,0-.77.24-.92.62-.15.37-.07.8.22,1.09l24.71,24.71v22.17l-23.29-23.29-24.71-24.71v-48.59h48.59M50,300H0v50l25,25,25,25v-25l-25-25h25v-25l25,25h25l-25-25-25-25h0Z" fill="#ec008c" stroke-width="0"/><polygon points=".5 399.5 .5 376.21 23.79 399.5 .5 399.5" stroke-width="0"/><path d="M1,377.41l21.59,21.59H1v-21.59M0,375v25h25L0,375h0Z" fill="#ec008c" stroke-width="0"/></g><g id="Layer_33"><rect x="300" y="200" width="100" height="100" fill="#f26522" stroke-width="0"/><polygon points="350 225 350 250 325 250 350 275 350 300 400 300 400 250 375 250 350 225" fill="#fff" opacity="0" stroke-width="0"/><polygon points="350 200 375 225 400 250 400 225 375 200 350 200" fill="#fff" opacity="0" stroke-width="0"/><polygon points="300 250 300 275 325 300 350 300 325 275 300 250" fill="#fff" opacity="0" stroke-width="0"/><polygon points="376.21 200.5 399.5 200.5 399.5 223.79 376.21 200.5" stroke-width="0"/><path d="M399,201v21.59l-21.59-21.59h21.59M400,200h-25l25,25v-25h0Z" fill="#ec008c" stroke-width="0"/><path d="M300.5,249.79v-49.29h49.29l49,49h-23.59l-24.85-24.85c-.1-.1-.22-.15-.35-.15-.06,0-.13.01-.19.04-.19.08-.31.26-.31.46v24.5h-24.5c-.2,0-.38.12-.46.31-.08.19-.03.4.11.54l24.85,24.85v23.59l-49-49Z" stroke-width="0"/><path d="M349.59,201l24.71,24.71,23.29,23.29h-22.17l-24.71-24.71c-.19-.19-.45-.29-.71-.29-.13,0-.26.02-.38.08-.37.15-.62.52-.62.92v24h-24c-.4,0-.77.24-.92.62-.15.37-.07.8.22,1.09l24.71,24.71v22.17l-23.29-23.29-24.71-24.71v-48.59h48.59M350,200h-50v50l25,25,25,25v-25l-25-25h25v-25l25,25h25l-25-25-25-25h0Z" fill="#ec008c" stroke-width="0"/><polygon points="300.5 299.5 300.5 276.21 323.79 299.5 300.5 299.5" stroke-width="0"/><path d="M301,277.41l21.59,21.59h-21.59v-21.59M300,275v25h25l-25-25h0Z" fill="#ec008c" stroke-width="0"/></g><g id="Layer_32"><rect x="200" y="200" width="100" height="100" fill="#ed1c24" stroke-width="0"/><polygon points="250 225 250 250 225 250 250 275 250 300 300 300 300 250 275 250 250 225" fill="#fff" opacity="0" stroke-width="0"/><polygon points="250 200 275 225 300 250 300 225 275 200 250 200" fill="#fff" opacity="0" stroke-width="0"/><polygon points="200 250 200 275 225 300 250 300 225 275 200 250" fill="#fff" opacity="0" stroke-width="0"/><polygon points="276.21 200.5 299.5 200.5 299.5 223.79 276.21 200.5" stroke-width="0"/><path d="M299,201v21.59l-21.59-21.59h21.59M300,200h-25l25,25v-25h0Z" fill="#ec008c" stroke-width="0"/><path d="M200.5,249.79v-49.29h49.29l49,49h-23.59l-24.85-24.85c-.1-.1-.22-.15-.35-.15-.06,0-.13.01-.19.04-.19.08-.31.26-.31.46v24.5h-24.5c-.2,0-.38.12-.46.31-.08.19-.03.4.11.54l24.85,24.85v23.59l-49-49Z" stroke-width="0"/><path d="M249.59,201l24.71,24.71,23.29,23.29h-22.17l-24.71-24.71c-.19-.19-.45-.29-.71-.29-.13,0-.26.02-.38.08-.37.15-.62.52-.62.92v24h-24c-.4,0-.77.24-.92.62-.15.37-.07.8.22,1.09l24.71,24.71v22.17l-23.29-23.29-24.71-24.71v-48.59h48.59M250,200h-50v50l25,25,25,25v-25l-25-25h25v-25l25,25h25l-25-25-25-25h0Z" fill="#ec008c" stroke-width="0"/><polygon points="200.5 299.5 200.5 276.21 223.79 299.5 200.5 299.5" stroke-width="0"/><path d="M201,277.41l21.59,21.59h-21.59v-21.59M200,275v25h25l-25-25h0Z" fill="#ec008c" stroke-width="0"/></g><g id="Layer_31"><rect x="100" y="200" width="100" height="100" fill="#f26522" stroke-width="0"/><polygon points="150 225 150 250 125 250 150 275 150 300 200 300 200 250 175 250 150 225" fill="#fff" opacity="0" stroke-width="0"/><polygon points="150 200 175 225 200 250 200 225 175 200 150 200" fill="#fff" opacity="0" stroke-width="0"/><polygon points="100 250 100 275 125 300 150 300 125 275 100 250" fill="#fff" opacity="0" stroke-width="0"/><polygon points="176.21 200.5 199.5 200.5 199.5 223.79 176.21 200.5" stroke-width="0"/><path d="M199,201v21.59l-21.59-21.59h21.59M200,200h-25l25,25v-25h0Z" fill="#ec008c" stroke-width="0"/><path d="M100.5,249.79v-49.29h49.29l49,49h-23.59l-24.85-24.85c-.1-.1-.22-.15-.35-.15-.06,0-.13.01-.19.04-.19.08-.31.26-.31.46v24.5h-24.5c-.2,0-.38.12-.46.31-.08.19-.03.4.11.54l24.85,24.85v23.59l-49-49Z" stroke-width="0"/><path d="M149.59,201l24.71,24.71,23.29,23.29h-22.17l-24.71-24.71c-.19-.19-.45-.29-.71-.29-.13,0-.26.02-.38.08-.37.15-.62.52-.62.92v24h-24c-.4,0-.77.24-.92.62-.15.37-.07.8.22,1.09l24.71,24.71v22.17l-23.29-23.29-24.71-24.71v-48.59h48.59M150,200h-50v50l25,25,25,25v-25l-25-25h25v-25l25,25h25l-25-25-25-25h0Z" fill="#ec008c" stroke-width="0"/><polygon points="100.5 299.5 100.5 276.21 123.79 299.5 100.5 299.5" stroke-width="0"/><path d="M101,277.41l21.59,21.59h-21.59v-21.59M100,275v25h25l-25-25h0Z" fill="#ec008c" stroke-width="0"/></g><g id="Layer_30"><rect y="200" width="100" height="100" fill="#ffde17" stroke-width="0"/><polygon points="50 225 50 250 25 250 50 275 50 300 100 300 100 250 75 250 50 225" fill="#fff" opacity="0" stroke-width="0"/><polygon points="50 200 75 225 100 250 100 225 75 200 50 200" fill="#fff" opacity="0" stroke-width="0"/><polygon points="0 250 0 275 25 300 50 300 25 275 0 250" fill="#fff" opacity="0" stroke-width="0"/><polygon points="76.21 200.5 99.5 200.5 99.5 223.79 76.21 200.5" stroke-width="0"/><path d="M99,201v21.59l-21.59-21.59h21.59M100,200h-25l25,25v-25h0Z" fill="#ec008c" stroke-width="0"/><path d="M.5,249.79v-49.29h49.29l49,49h-23.59l-24.85-24.85c-.1-.1-.22-.15-.35-.15-.06,0-.13.01-.19.04-.19.08-.31.26-.31.46v24.5h-24.5c-.2,0-.38.12-.46.31-.08.19-.03.4.11.54l24.85,24.85v23.59L.5,249.79Z" stroke-width="0"/><path d="M49.59,201l24.71,24.71,23.29,23.29h-22.17l-24.71-24.71c-.19-.19-.45-.29-.71-.29-.13,0-.26.02-.38.08-.37.15-.62.52-.62.92v24h-24c-.4,0-.77.24-.92.62-.15.37-.07.8.22,1.09l24.71,24.71v22.17l-23.29-23.29L1,249.59v-48.59h48.59M50,200H0v50l25,25,25,25v-25l-25-25h25v-25l25,25h25l-25-25-25-25h0Z" fill="#ec008c" stroke-width="0"/><polygon points=".5 299.5 .5 276.21 23.79 299.5 .5 299.5" stroke-width="0"/><path d="M1,277.41l21.59,21.59H1v-21.59M0,275v25h25L0,275h0Z" fill="#ec008c" stroke-width="0"/></g><g id="Layer_29"><rect x="300" y="100" width="100" height="100" fill="#00a14b" stroke-width="0"/><polygon points="350 125 350 150 325 150 350 175 350 200 400 200 400 150 375 150 350 125" fill="#fff" opacity="0" stroke-width="0"/><polygon points="350 100 375 125 400 150 400 125 375 100 350 100" fill="#fff" opacity="0" stroke-width="0"/><polygon points="300 150 300 175 325 200 350 200 325 175 300 150" fill="#fff" opacity="0" stroke-width="0"/><polygon points="376.21 100.5 399.5 100.5 399.5 123.79 376.21 100.5" stroke-width="0"/><path d="M399,101v21.59l-21.59-21.59h21.59M400,100h-25l25,25v-25h0Z" fill="#ec008c" stroke-width="0"/><path d="M300.5,149.79v-49.29h49.29l49,49h-23.59l-24.85-24.85c-.1-.1-.22-.15-.35-.15-.06,0-.13.01-.19.04-.19.08-.31.26-.31.46v24.5h-24.5c-.2,0-.38.12-.46.31-.08.19-.03.4.11.54l24.85,24.85v23.59l-49-49Z" stroke-width="0"/><path d="M349.59,101l24.71,24.71,23.29,23.29h-22.17l-24.71-24.71c-.19-.19-.45-.29-.71-.29-.13,0-.26.02-.38.08-.37.15-.62.52-.62.92v24h-24c-.4,0-.77.24-.92.62-.15.37-.07.8.22,1.09l24.71,24.71v22.17l-23.29-23.29-24.71-24.71v-48.59h48.59M350,100h-50v50l25,25,25,25v-25l-25-25h25v-25l25,25h25l-25-25-25-25h0Z" fill="#ec008c" stroke-width="0"/><polygon points="300.5 199.5 300.5 176.21 323.79 199.5 300.5 199.5" stroke-width="0"/><path d="M301,177.41l21.59,21.59h-21.59v-21.59M300,175v25h25l-25-25h0Z" fill="#ec008c" stroke-width="0"/></g><g id="Layer_28"><rect x="200" y="100" width="100" height="100" fill="#21409a" stroke-width="0"/><polygon points="250 125 250 150 225 150 250 175 250 200 300 200 300 150 275 150 250 125" fill="#fff" opacity="0" stroke-width="0"/><polygon points="250 100 275 125 300 150 300 125 275 100 250 100" fill="#fff" opacity="0" stroke-width="0"/><polygon points="200 150 200 175 225 200 250 200 225 175 200 150" fill="#fff" opacity="0" stroke-width="0"/><polygon points="276.21 100.5 299.5 100.5 299.5 123.79 276.21 100.5" stroke-width="0"/><path d="M299,101v21.59l-21.59-21.59h21.59M300,100h-25l25,25v-25h0Z" fill="#ec008c" stroke-width="0"/><path d="M200.5,149.79v-49.29h49.29l49,49h-23.59l-24.85-24.85c-.1-.1-.22-.15-.35-.15-.06,0-.13.01-.19.04-.19.08-.31.26-.31.46v24.5h-24.5c-.2,0-.38.12-.46.31-.08.19-.03.4.11.54l24.85,24.85v23.59l-49-49Z" stroke-width="0"/><path d="M249.59,101l24.71,24.71,23.29,23.29h-22.17l-24.71-24.71c-.19-.19-.45-.29-.71-.29-.13,0-.26.02-.38.08-.37.15-.62.52-.62.92v24h-24c-.4,0-.77.24-.92.62-.15.37-.07.8.22,1.09l24.71,24.71v22.17l-23.29-23.29-24.71-24.71v-48.59h48.59M250,100h-50v50l25,25,25,25v-25l-25-25h25v-25l25,25h25l-25-25-25-25h0Z" fill="#ec008c" stroke-width="0"/><polygon points="200.5 199.5 200.5 176.21 223.79 199.5 200.5 199.5" stroke-width="0"/><path d="M201,177.41l21.59,21.59h-21.59v-21.59M200,175v25h25l-25-25h0Z" fill="#ec008c" stroke-width="0"/></g><g id="Layer_27"><rect x="100" y="100" width="100" height="100" fill="#7f3f98" stroke-width="0"/><polygon points="150 125 150 150 125 150 150 175 150 200 200 200 200 150 175 150 150 125" fill="#fff" opacity="0" stroke-width="0"/><polygon points="150 100 175 125 200 150 200 125 175 100 150 100" fill="#fff" opacity="0" stroke-width="0"/><polygon points="100 150 100 175 125 200 150 200 125 175 100 150" fill="#fff" opacity="0" stroke-width="0"/><polygon points="176.21 100.5 199.5 100.5 199.5 123.79 176.21 100.5" stroke-width="0"/><path d="M199,101v21.59l-21.59-21.59h21.59M200,100h-25l25,25v-25h0Z" fill="#ec008c" stroke-width="0"/><path d="M100.5,149.79v-49.29h49.29l49,49h-23.59l-24.85-24.85c-.1-.1-.22-.15-.35-.15-.06,0-.13.01-.19.04-.19.08-.31.26-.31.46v24.5h-24.5c-.2,0-.38.12-.46.31-.08.19-.03.4.11.54l24.85,24.85v23.59l-49-49Z" stroke-width="0"/><path d="M149.59,101l24.71,24.71,23.29,23.29h-22.17l-24.71-24.71c-.19-.19-.45-.29-.71-.29-.13,0-.26.02-.38.08-.37.15-.62.52-.62.92v24h-24c-.4,0-.77.24-.92.62-.15.37-.07.8.22,1.09l24.71,24.71v22.17l-23.29-23.29-24.71-24.71v-48.59h48.59M150,100h-50v50l25,25,25,25v-25l-25-25h25v-25l25,25h25l-25-25-25-25h0Z" fill="#ec008c" stroke-width="0"/><polygon points="100.5 199.5 100.5 176.21 123.79 199.5 100.5 199.5" stroke-width="0"/><path d="M101,177.41l21.59,21.59h-21.59v-21.59M100,175v25h25l-25-25h0Z" fill="#ec008c" stroke-width="0"/></g><g id="Layer_26"><rect y="100" width="100" height="100" fill="#21409a" stroke-width="0"/><polygon points="50 125 50 150 25 150 50 175 50 200 100 200 100 150 75 150 50 125" fill="#fff" opacity="0" stroke-width="0"/><polygon points="50 100 75 125 100 150 100 125 75 100 50 100" fill="#fff" opacity="0" stroke-width="0"/><polygon points="0 150 0 175 25 200 50 200 25 175 0 150" fill="#fff" opacity="0" stroke-width="0"/><polygon points="76.21 100.5 99.5 100.5 99.5 123.79 76.21 100.5" stroke-width="0"/><path d="M99,101v21.59l-21.59-21.59h21.59M100,100h-25l25,25v-25h0Z" fill="#ec008c" stroke-width="0"/><path d="M.5,149.79v-49.29h49.29l49,49h-23.59l-24.85-24.85c-.1-.1-.22-.15-.35-.15-.06,0-.13.01-.19.04-.19.08-.31.26-.31.46v24.5h-24.5c-.2,0-.38.12-.46.31-.08.19-.03.4.11.54l24.85,24.85v23.59L.5,149.79Z" stroke-width="0"/><path d="M49.59,101l24.71,24.71,23.29,23.29h-22.17l-24.71-24.71c-.19-.19-.45-.29-.71-.29-.13,0-.26.02-.38.08-.37.15-.62.52-.62.92v24h-24c-.4,0-.77.24-.92.62-.15.37-.07.8.22,1.09l24.71,24.71v22.17l-23.29-23.29L1,149.59v-48.59h48.59M50,100H0v50l25,25,25,25v-25l-25-25h25v-25l25,25h25l-25-25-25-25h0Z" fill="#ec008c" stroke-width="0"/><polygon points=".5 199.5 .5 176.21 23.79 199.5 .5 199.5" stroke-width="0"/><path d="M1,177.41l21.59,21.59H1v-21.59M0,175v25h25L0,175h0Z" fill="#ec008c" stroke-width="0"/></g><g id="Layer_24"><rect x="300" width="100" height="100" fill="#00a14b" stroke-width="0"/><polygon points="350 25 350 50 325 50 350 75 350 100 400 100 400 50 375 50 350 25" fill="#fff" opacity="0" stroke-width="0"/><polygon points="350 0 375 25 400 50 400 25 375 0 350 0" fill="#fff" opacity="0" stroke-width="0"/><polygon points="300 50 300 75 325 100 350 100 325 75 300 50" fill="#fff" opacity="0" stroke-width="0"/><polygon points="376.21 .5 399.5 .5 399.5 23.79 376.21 .5" stroke-width="0"/><path d="M399,1v21.59l-21.59-21.59h21.59M400,0h-25l25,25V0h0Z" fill="#ec008c" stroke-width="0"/><path d="M300.5,49.79V.5h49.29l49,49h-23.59l-24.85-24.85c-.1-.1-.22-.15-.35-.15-.06,0-.13.01-.19.04-.19.08-.31.26-.31.46v24.5h-24.5c-.2,0-.38.12-.46.31-.08.19-.03.4.11.54l24.85,24.85v23.59l-49-49Z" stroke-width="0"/><path d="M349.59,1l24.71,24.71,23.29,23.29h-22.17l-24.71-24.71c-.19-.19-.45-.29-.71-.29-.13,0-.26.02-.38.08-.37.15-.62.52-.62.92v24h-24c-.4,0-.77.24-.92.62-.15.37-.07.8.22,1.09l24.71,24.71v22.17l-23.29-23.29-24.71-24.71V1h48.59M350,0h-50v50l25,25,25,25v-25l-25-25h25v-25l25,25h25l-25-25L350,0h0Z" fill="#ec008c" stroke-width="0"/><polygon points="300.5 99.5 300.5 76.21 323.79 99.5 300.5 99.5" stroke-width="0"/><path d="M301,77.41l21.59,21.59h-21.59v-21.59M300,75v25h25l-25-25h0Z" fill="#ec008c" stroke-width="0"/></g><g id="Layer_23"><rect x="200" width="100" height="100" fill="#ffde17" stroke-width="0"/><polygon points="250 25 250 50 225 50 250 75 250 100 300 100 300 50 275 50 250 25" fill="#fff" opacity="0" stroke-width="0"/><polygon points="250 0 275 25 300 50 300 25 275 0 250 0" fill="#fff" opacity="0" stroke-width="0"/><polygon points="200 50 200 75 225 100 250 100 225 75 200 50" fill="#fff" opacity="0" stroke-width="0"/><polygon points="276.21 .5 299.5 .5 299.5 23.79 276.21 .5" stroke-width="0"/><path d="M299,1v21.59l-21.59-21.59h21.59M300,0h-25l25,25V0h0Z" fill="#ec008c" stroke-width="0"/><path d="M200.5,49.79V.5h49.29l49,49h-23.59l-24.85-24.85c-.1-.1-.22-.15-.35-.15-.06,0-.13.01-.19.04-.19.08-.31.26-.31.46v24.5h-24.5c-.2,0-.38.12-.46.31-.08.19-.03.4.11.54l24.85,24.85v23.59l-49-49Z" stroke-width="0"/><path d="M249.59,1l24.71,24.71,23.29,23.29h-22.17l-24.71-24.71c-.19-.19-.45-.29-.71-.29-.13,0-.26.02-.38.08-.37.15-.62.52-.62.92v24h-24c-.4,0-.77.24-.92.62-.15.37-.07.8.22,1.09l24.71,24.71v22.17l-23.29-23.29-24.71-24.71V1h48.59M250,0h-50v50l25,25,25,25v-25l-25-25h25v-25l25,25h25l-25-25L250,0h0Z" fill="#ec008c" stroke-width="0"/><polygon points="200.5 99.5 200.5 76.21 223.79 99.5 200.5 99.5" stroke-width="0"/><path d="M201,77.41l21.59,21.59h-21.59v-21.59M200,75v25h25l-25-25h0Z" fill="#ec008c" stroke-width="0"/></g><g id="Layer_22"><rect x="100" width="100" height="100" fill="#f26522" stroke-width="0"/><polygon points="150 25 150 50 125 50 150 75 150 100 200 100 200 50 175 50 150 25" fill="#fff" opacity="0" stroke-width="0"/><polygon points="150 0 175 25 200 50 200 25 175 0 150 0" fill="#fff" opacity="0" stroke-width="0"/><polygon points="100 50 100 75 125 100 150 100 125 75 100 50" fill="#fff" opacity="0" stroke-width="0"/><polygon points="176.21 .5 199.5 .5 199.5 23.79 176.21 .5" stroke-width="0"/><path d="M199,1v21.59L177.41,1h21.59M200,0h-25l25,25V0h0Z" fill="#ec008c" stroke-width="0"/><path d="M100.5,49.79V.5h49.29l49,49h-23.59l-24.85-24.85c-.1-.1-.22-.15-.35-.15-.06,0-.13.01-.19.04-.19.08-.31.26-.31.46v24.5h-24.5c-.2,0-.38.12-.46.31-.08.19-.03.4.11.54l24.85,24.85v23.59l-49-49Z" stroke-width="0"/><path d="M149.59,1l24.71,24.71,23.29,23.29h-22.17l-24.71-24.71c-.19-.19-.45-.29-.71-.29-.13,0-.26.02-.38.08-.37.15-.62.52-.62.92v24h-24c-.4,0-.77.24-.92.62-.15.37-.07.8.22,1.09l24.71,24.71v22.17l-23.29-23.29-24.71-24.71V1h48.59M150,0h-50v50l25,25,25,25v-25l-25-25h25v-25l25,25h25l-25-25L150,0h0Z" fill="#ec008c" stroke-width="0"/><polygon points="100.5 99.5 100.5 76.21 123.79 99.5 100.5 99.5" stroke-width="0"/><path d="M101,77.41l21.59,21.59h-21.59v-21.59M100,75v25h25l-25-25h0Z" fill="#ec008c" stroke-width="0"/></g><g id="Layer_21"><rect width="100" height="100" fill="#ed1c24" stroke-width="0"/><polygon points="50 25 50 50 25 50 50 75 50 100 100 100 100 50 75 50 50 25" fill="#fff" opacity="0" stroke-width="0"/><polygon points="50 0 75 25 100 50 100 25 75 0 50 0" fill="#fff" opacity="0" stroke-width="0"/><polygon points="0 50 0 75 25 100 50 100 25 75 0 50" fill="#fff" opacity="0" stroke-width="0"/><polygon points="76.21 .5 99.5 .5 99.5 23.79 76.21 .5" stroke-width="0"/><path d="M99,1v21.59L77.41,1h21.59M100,0h-25l25,25V0h0Z" fill="#ec008c" stroke-width="0"/><path d="M.5,49.79V.5h49.29l49,49h-23.59l-24.85-24.85c-.1-.1-.22-.15-.35-.15-.06,0-.13.01-.19.04-.19.08-.31.26-.31.46v24.5h-24.5c-.2,0-.38.12-.46.31-.08.19-.03.4.11.54l24.85,24.85v23.59L.5,49.79Z" stroke-width="0"/><path d="M49.59,1l24.71,24.71,23.29,23.29h-22.17l-24.71-24.71c-.19-.19-.45-.29-.71-.29-.13,0-.26.02-.38.08-.37.15-.62.52-.62.92v24h-24c-.4,0-.77.24-.92.62-.15.37-.07.8.22,1.09l24.71,24.71v22.17l-23.29-23.29L1,49.59V1h48.59M50,0H0v50l25,25,25,25v-25l-25-25h25v-25l25,25h25l-25-25L50,0h0Z" fill="#ec008c" stroke-width="0"/><polygon points=".5 99.5 .5 76.21 23.79 99.5 .5 99.5" stroke-width="0"/><path d="M1,77.41l21.59,21.59H1v-21.59M0,75v25h25L0,75h0Z" fill="#ec008c" stroke-width="0"/></g></svg>