<?xml version="1.0" encoding="UTF-8" standalone="no"?>
<!DOCTYPE svg PUBLIC "-//W3C//DTD SVG 1.1//EN" "http://www.w3.org/Graphics/SVG/1.1/DTD/svg11.dtd">
<svg width="100%" height="100%" viewBox="0 0 202 202" version="1.1" xmlns="http://www.w3.org/2000/svg" xmlns:xlink="http://www.w3.org/1999/xlink" xml:space="preserve" xmlns:serif="http://www.serif.com/" style="fill-rule:evenodd;clip-rule:evenodd;stroke-linejoin:round;stroke-miterlimit:2;">
    <g>
        <path d="M116.458,12.196C165.375,20.822 198.087,67.54 189.462,116.458C180.836,165.375 134.119,198.087 85.201,189.462C36.283,180.836 3.571,134.119 12.196,85.201C20.822,36.283 67.54,3.571 116.458,12.196Z" style="fill:#fff;"/>
        <path d="M15.347,129C12.863,121.506 11.418,113.832 10.965,106.166C10.857,104.357 10.803,102.506 10.809,100.615C10.833,92.5 11.958,84.446 14.124,76.678C13.353,79.458 12.708,82.301 12.196,85.201C9.522,100.369 10.822,115.325 15.347,129ZM31.031,44.007C36.723,37.023 43.555,30.79 51.452,25.605C43.779,30.644 36.877,36.844 31.031,44.007ZM51.462,25.598C59.488,20.329 67.492,16.853 75.006,14.605C66.63,17.124 58.703,20.844 51.462,25.598ZM102.114,10.827C108.99,10.911 113.927,11.755 115.884,12.097C111.263,11.313 106.663,10.896 102.114,10.827ZM122.166,13.392C123.978,13.831 126.058,14.396 128.345,15.129C126.32,14.481 124.26,13.901 122.166,13.392ZM153.11,27.56C153.911,28.132 154.713,28.726 155.516,29.341C154.725,28.735 153.923,28.141 153.11,27.56ZM155.516,29.341C156.369,29.996 161.26,33.747 165.386,38.133C162.326,34.976 159.028,32.035 155.516,29.341ZM165.386,38.133C169.127,41.931 191.39,63.452 192.486,100.528C193.09,120.961 185.818,137.273 185.704,137.554C182.273,145.988 168.274,177.185 128.545,189.177C113.813,193.624 100.155,192.85 97.673,192.709C68.246,191.041 42.513,175.457 27.111,152.447C26.409,151.397 23.226,147.073 19.856,140.093C32.046,165.167 55.671,184.255 85.201,189.462C134.119,198.087 180.836,165.375 189.462,116.458C194.672,86.91 184.801,58.165 165.386,38.133Z"/>
        <path d="M94.45,89.07L93.976,86.451L90.583,84.367L82.98,82.261L77.063,80.007L65.45,87.209L61.84,86.023L62.582,77.548L71.542,68.204L81.396,69.066L104.707,81.83L106.212,92.615L94.913,91.626L94.707,90.487L92.251,90.272L92.261,87.89L90.985,86.587L88.666,85.59L83.762,85.161L83.003,85.47L83.547,85.34L87.506,85.488L90.214,86.321L92.261,87.89L92.071,90.058L90.845,92.731L86.028,93.303L81.924,92.546L80.451,91.226L80.502,90.635L75.403,92.175L72.446,91.916L67.889,89.531L65.499,87.336L70.902,83.837L73.235,84.041L75.622,82.86L81.081,81.748L84.183,82.616L87.985,83.928L91.348,85.019L93.779,86.434L94.45,89.07ZM81.382,86.133L80.878,86.338L80.847,86.693L81.382,86.133ZM161.706,97.699L162.421,93.349L157.638,86.858L148.109,87.414L132.827,91.836L130.684,93.635L124.781,90.735L126.626,85.535L133.827,80.405L154.361,77.237L166.938,83.302L171.767,91.668L169.801,98.249L163.689,102.282L161.415,100.395L161.161,101.663L157.475,102.93L151.659,99.045L152.055,94.518L151.051,93.923L151.858,94.494L151.634,97.057L150.227,99.515L148.281,101.331L144.931,101.038L141.795,100.565L140.246,97.848L140.636,93.392L139.355,94.394L138.515,94.916L136.887,95.369L134.778,96.773L130.639,96.411L130.708,95.623L132.157,94.955L133.588,94.485L134.179,94.536L134.33,93.755L134.209,93.149L133.709,93.105L133.211,94.253L131.06,93.866L133.024,91.854L142.847,89.347L152.314,91.555L159.115,94.931L161.927,95.177L161.706,97.699ZM149.104,92.771L147.712,91.947L142.553,91.893L140.951,93.146L142.519,92.287L146.315,92.023L149.104,92.771ZM144.653,156.422L142.15,157.792L135.74,158.423L125.46,157.586L118.321,156.069L113.874,155.216L108.054,154.809L104.961,154.141L103.949,154.053L104.018,153.264L106.615,153.094L109.194,153.121L110.266,152.222L113.025,152.464L115.947,153.116L118.8,154.558L125.763,156.16L128.671,155.223L130.472,152.798L134.389,151.155L142.007,152.616L143.069,154.099L144.774,155.043L144.653,156.422ZM103.222,135.122L100.832,132.927L99.985,131.264L97.346,129.643L94.476,128.399L92.789,127.259L91.958,125.399L92.148,123.231L95.08,121.501L98.627,121.811L100.495,123.166L102.113,124.897L110.414,125.623L115.02,122.848L116.863,122.215L120.214,122.508L120.916,123.563L124.025,126.615L125.035,128.69L127.134,129.668L126.858,132.821L124.638,133.223L123.062,133.085L120.859,133.289L118.425,133.871L115.168,134.777L112.212,134.519L111.303,135.829L103.222,135.122ZM74.396,149.084L74.137,152.04L71.188,153.967L70.58,154.112L70.786,151.747L71.06,150.892L72.082,148.286L73.594,146.896L73.79,144.662L75.59,142.238L78.941,142.531L83.782,143.947L85.031,147.83L93.9,148.606L93.9,148.608L95.926,149.122L99.589,151.685L99.48,152.298L93.343,150.742L84.841,149.998L83.299,149.466L74.396,149.084ZM119.022,172.451L117.152,171.493L112.843,172.705L110.715,169.484L109.125,169.798L105.184,169.453L103.319,166.338L102.54,166.197L99.502,168.558L96.366,168.085L94.945,166.174L91.722,166.686L88.414,168.184L85.058,161.138L90.158,159.598L101.422,162.375L116.116,165.041L117.08,165.727L124.518,166.378L124.173,170.32L123.281,171.433L121.387,172.658L119.022,172.451Z"/>
    </g>
</svg>
