<svg width="101" height="101" viewBox="0 0 101 101" fill="none" xmlns="http://www.w3.org/2000/svg">
<path fill-rule="evenodd" clip-rule="evenodd" d="M3.30619 65.7409C1.9392 61.6241 1.14399 57.4083 0.894692 53.197C0.835257 52.2032 0.80554 51.1864 0.808842 50.1475C0.822049 45.6895 1.44116 41.2651 2.63315 36.9977C2.20885 38.5249 1.8539 40.0867 1.57213 41.6798C0.100583 50.0124 0.815996 58.2285 3.30619 65.7409ZM11.9374 19.0498C15.0698 15.2131 18.8296 11.789 23.1754 8.94061C18.9528 11.7088 15.1545 15.1148 11.9374 19.0498ZM23.1809 8.93677C27.5978 6.04223 32.0025 4.13268 36.1376 2.89774C31.5281 4.28155 27.1658 6.32515 23.1809 8.93677ZM51.0556 0.822282C54.8396 0.868428 57.5565 1.33208 58.6335 1.51996C56.0905 1.08927 53.559 0.860187 51.0556 0.822282ZM62.0906 2.23137C63.0878 2.47254 64.2325 2.78292 65.491 3.1856C64.3766 2.82962 63.243 2.51099 62.0906 2.23137ZM79.1197 10.0146C79.5605 10.3288 80.0018 10.6551 80.4437 10.993C80.0084 10.6601 79.5671 10.3338 79.1197 10.0146ZM80.4437 10.993C80.9132 11.3528 83.6048 13.4134 85.8754 15.8229C84.1914 14.0886 82.3765 12.473 80.4437 10.993ZM85.8754 15.8229C87.9341 17.9093 100.186 29.732 100.789 50.0998C101.121 61.3247 97.1195 70.2857 97.0567 70.4401C95.1686 75.0733 87.4647 92.2115 65.6011 98.7993C57.4938 101.242 49.9776 100.817 48.6117 100.74C32.4175 99.8233 18.2561 91.2622 9.78013 78.6216C9.3938 78.0448 7.64214 75.6694 5.78757 71.8349C12.4959 85.6094 25.4972 96.0954 41.7481 98.9559C68.6686 103.694 94.3778 85.7236 99.1248 58.8509C101.992 42.6187 96.5598 26.8275 85.8754 15.8229Z" fill="black"/>
<path fill-rule="evenodd" clip-rule="evenodd" d="M46.838 43.8053L46.5772 42.3665L44.7099 41.2217L40.5259 40.0647L37.2696 38.8265L30.8788 42.7829L28.8921 42.1314L29.3005 37.4756L34.2313 32.3425L39.6541 32.816L52.4826 39.828L53.3108 45.7527L47.0928 45.2094L46.9794 44.5837L45.6279 44.4656L45.6334 43.157L44.9311 42.4412L43.655 41.8935L40.9562 41.6579L40.5385 41.8276L40.8379 41.7562L43.0166 41.8375L44.5069 42.2951L45.6334 43.157L45.5288 44.348L44.8541 45.8165L42.2032 46.1307L39.9447 45.7148L39.1341 44.9897L39.1622 44.665L36.3561 45.511L34.7288 45.3687L32.221 44.0585L30.9057 42.8527L33.8791 40.9305L35.163 41.0426L36.4766 40.3938L39.4808 39.7829L41.1879 40.2598L43.2802 40.9805L45.1309 41.5798L46.4687 42.3572L46.838 43.8053ZM39.6464 42.1918L39.3691 42.3044L39.352 42.4995L39.6464 42.1918ZM83.8502 48.5456L84.2437 46.156L81.6115 42.5901L76.3675 42.8955L67.9576 45.3248L66.7782 46.3131L63.5297 44.7199L64.545 41.8633L68.5079 39.0451L79.8081 37.3048L86.7295 40.6366L89.387 45.2325L88.305 48.8478L84.9415 51.0633L83.6901 50.0267L83.5503 50.7233L81.5218 51.4193L78.3211 49.2851L78.5391 46.7981L77.9866 46.4713L78.4307 46.785L78.3074 48.193L77.5331 49.5433L76.4622 50.5409L74.6186 50.3799L72.8928 50.1201L72.0404 48.6275L72.255 46.1796L71.55 46.73L71.0878 47.0168L70.1918 47.2656L69.0312 48.0369L66.7535 47.8381L66.7914 47.4052L67.5889 47.0382L68.3764 46.78L68.7016 46.808L68.7847 46.379L68.7181 46.0461L68.4429 46.0219L68.1689 46.6526L66.9852 46.44L68.066 45.3347L73.4717 43.9574L78.6816 45.1704L82.4243 47.025L83.9718 47.1602L83.8502 48.5456ZM76.9151 45.8384L76.149 45.3858L73.31 45.3561L72.4283 46.0444L73.2912 45.5725L75.3803 45.4275L76.9151 45.8384ZM74.4656 80.8053L73.0882 81.5579L69.5606 81.9045L63.9034 81.4447L59.9746 80.6113L57.5274 80.1427L54.3245 79.9192L52.6224 79.5522L52.0655 79.5038L52.1034 79.0704L53.5326 78.977L54.9519 78.9919L55.5418 78.498L57.0602 78.6309L58.6682 78.9891L60.2383 79.7813L64.0701 80.6613L65.6704 80.1466L66.6616 78.8144L68.8172 77.9118L73.0095 78.7144L73.5939 79.5291L74.5322 80.0477L74.4656 80.8053ZM51.6654 69.1041L50.3501 67.8982L49.884 66.9847L48.4317 66.0942L46.8523 65.4108L45.9239 64.7845L45.4666 63.7627L45.5712 62.5717L47.1847 61.6213L49.1367 61.7916L50.1647 62.536L51.0551 63.4869L55.6233 63.8858L58.158 62.3613L59.1723 62.0136L61.0164 62.1745L61.4027 62.7541L63.1137 64.4307L63.6695 65.5706L64.8246 66.1079L64.6727 67.84L63.451 68.0608L62.5837 67.985L61.3714 68.0971L60.0319 68.4168L58.2395 68.9145L56.6128 68.7728L56.1125 69.4924L51.6654 69.1041ZM35.8019 76.7741L35.6594 78.398L34.0365 79.4566L33.7019 79.5363L33.8153 78.237L33.9661 77.7673L34.5285 76.3357L35.3606 75.5721L35.4684 74.3449L36.459 73.0133L38.3031 73.1742L40.9672 73.9521L41.6546 76.0852L46.5353 76.5115V76.5126L47.6503 76.795L49.6661 78.203L49.6061 78.5397L46.2288 77.6849L41.55 77.2762L40.7014 76.984L35.8019 76.7741ZM60.3604 89.6108L59.3313 89.0846L56.96 89.7504L55.7889 87.9809L54.9139 88.1534L52.7451 87.9639L51.7188 86.2526L51.2901 86.1752L49.6182 87.4722L47.8924 87.2124L47.1104 86.1626L45.3367 86.4438L43.5163 87.2668L41.6694 83.396L44.476 82.55L50.6748 84.0756L58.7612 85.5401L59.2917 85.917L63.385 86.2746L63.1951 88.4402L62.7042 89.0516L61.6619 89.7246L60.3604 89.6108Z" fill="black"/>
</svg>
