<?xml version="1.0" encoding="UTF-8" standalone="no"?>
<!DOCTYPE svg PUBLIC "-//W3C//DTD SVG 1.1//EN" "http://www.w3.org/Graphics/SVG/1.1/DTD/svg11.dtd">
<svg width="100%" height="100%" viewBox="0 0 185 185" version="1.1" xmlns="http://www.w3.org/2000/svg" xmlns:xlink="http://www.w3.org/1999/xlink" xml:space="preserve" xmlns:serif="http://www.serif.com/" style="fill-rule:evenodd;clip-rule:evenodd;stroke-linejoin:round;stroke-miterlimit:2;">
    <g transform="matrix(1,0,0,1,-343.196,-376.162)">
        <g transform="matrix(0.947368,0,0,0.947368,-52.1053,0)">
            <g id="face" transform="matrix(0.178165,0,0,0.178165,415.083,403.513)">
                <clipPath id="_clip1">
                    <rect x="280.807" y="125.717" width="789.444" height="879.604"/>
                </clipPath>
                <g clip-path="url(#_clip1)">
                    <g transform="matrix(1.61285,0,0,0.990662,-270.617,8.08047)">
                        <path d="M220.837,590.744C213.087,515.083 216.713,434.725 233.861,355.394C234.884,350.66 235.95,345.959 237.057,341.292C218.218,420.99 212.42,507.113 220.837,590.744ZM278.974,804.026C249.019,742.171 228.848,668.968 220.837,590.744C228.413,666.026 247.507,739.288 278.974,804.026C307.147,862.204 343.976,910.343 387.484,943.182C336.049,904.342 303.111,850.917 285.084,816.189C282.998,812.17 280.961,808.115 278.974,804.026ZM237.057,341.292C253.182,273.082 278.859,209.579 313.356,156.372C339.05,116.742 365.608,88.933 390.71,69.417C321.508,123.688 265.53,221.281 237.057,341.292ZM387.651,943.307C389.757,944.895 391.894,946.456 394.062,947.993C394.44,948.261 410.218,959.096 432.03,967.971C435.805,969.507 463.052,981.751 503.664,980.652C525.734,980.055 548.102,972.764 551.912,971.522C629.053,946.379 674.864,879.922 693.003,852.916C713.978,821.687 757.178,744.127 779.091,650.737C787.204,616.159 804.586,537.982 795.641,423.865C785.352,292.612 743.514,205.652 732.847,183.287C748.389,207.589 804.143,296.617 823.331,448.346C829.931,500.539 828.792,550.839 828.59,559.774C826.816,638.091 814.426,693.354 806.385,724.657C781.365,822.062 743.122,877.03 711.06,913.294C697.745,928.354 681.016,942.064 678.309,944.283C594.131,1013.27 518.92,999.13 495.606,994.766C490.524,993.814 465.289,989.09 433.112,972.738C428.438,970.362 415.023,963.951 387.651,943.307ZM390.71,69.417C427.232,40.775 467.437,24.2 509.226,22.763C509.688,22.748 509.685,22.756 515,22.669L515,23.449C505.674,23.601 452.626,21.278 390.71,69.417Z"/>
                    </g>
                    <path d="M839,789L827,797L795,803L742.87,803.314L706.255,798.821L683.485,796.486L654,797L638.132,795L633,795L633,791L646,789L659,788L664,783L678,783L693,785L708,791L743.768,796L758,790L766,777L785,767L824,771L830,778L839,782L839,789Z" style="fill:rgb(0,0,15);"/>
                    <path d="M621,700L608,690L603,682L589,675L574,670L565,665L560,656L560,645L574,635L592,635L602,641L610.909,649L653.027,649L675,633L684,629L701,629L705,634L722,648L728,658L739,662L739,678L728,681L720,681L709,683L697,687L681,693L666,693L662,700L621,700Z" style="fill:rgb(0,0,15);"/>
                    <path d="M899,485.8L900.683,463.581L873.736,433L826,440L751,469L741,479L710,467L717,440L751,411L853,386L919,411L947,451L940,485L911,508L898.722,499.5L899,497L899,485.8Z" style="fill:rgb(0,0,15);"/>
                    <path d="M556.543,471.979L553,459L535,450L495.788,442.747L465,434L409.697,475.381L391,471L391,428L432,377L482,377L605,431L617.331,484.645L560,484.645L558.459,479L559,479L556.543,471.979Z" style="fill:rgb(0,0,15);"/>
                    <path d="M545,467L545,478L540,492L516,497L495,495L487,489L487,466L489.445,462.944L497.318,458.894L500,458L520,457L534,460L545,467Z" style="fill:rgb(0,0,15);"/>
                    <path d="M843.681,471.481L848,474L848,487L842,500L833,510L816,510L800,509L791.007,496L791.007,473.393L792.485,472.014L800,467L819,464L833.373,466.536L843.681,471.481Z" style="fill:rgb(0,0,15);"/>
                    <g transform="matrix(2.55556,0,0,1.86667,-784,-665.667)">
                        <path d="M495.391,776.071L495.391,784.107L489.913,790L488.739,790.536L488.739,784.107L489.13,781.735L490.696,774.464L493.435,770.359L493.435,764.286L496.565,757.321L503.217,757.321L513,760L516.13,770.179L533.739,770.179L533.739,770.185L537.82,771.093L545.478,777.143L545.37,778.822L533.01,776.071L516.13,776.071L513,775L495.391,776.071Z" style="fill:rgb(0,0,15);"/>
                    </g>
                    <g transform="matrix(0.995753,0.0920617,-0.0920617,0.995753,79.4095,-55.9079)">
                        <path d="M721.136,874.232L710.971,871.154L690.636,881.068L677.146,866.973L669.524,869.965L649.609,871.806L637.528,858L633.526,858L620.548,872.484L604.524,872.962L595.729,864.736L580.166,870.192L565.062,880.627L542.017,848.613L565.99,836.354L624.515,840L700,840L705.415,842.544L742.992,839.07L744.833,858.985L741.403,865.328L733.085,873.127L721.136,874.232Z" style="fill:rgb(0,0,15);"/>
                    </g>
                    <g transform="matrix(1.28,0,0,1,-115.88,-2)">
                        <path d="M526.827,481L517.094,481L516.313,469L510.844,463L501.379,459L481.938,459L479.061,460.894L474.125,463L472.91,464.944L471,466.201L471,488L451.469,498L439.75,498L421,488L410.844,478L430.896,458L440.144,458L449.125,451L470.219,443L482.719,446L498.128,450.931L511.732,454.948L521.781,461L525.33,473.979L526.827,481Z" style="fill:rgb(0,0,15);"/>
                    </g>
                    <g transform="matrix(1.28,0,0,1,-115.88,-2)">
                        <path d="M525.33,473.979L527.25,481L526.827,481L525.33,473.979Z" style="fill:rgb(0,0,15);"/>
                    </g>
                    <g transform="matrix(1.28,0,0,1,-115.88,-2)">
                        <path d="M472.91,464.944L474.125,463L479.061,460.894L472.91,464.944Z" style="fill:rgb(0,0,15);"/>
                    </g>
                    <g transform="matrix(1.13636,0,0,1,-122.591,0)">
                        <path d="M898.756,499.5L898.12,506L882.28,514L855,497L855,474.032L850.32,471.481L843.56,467L841.248,466.536L834.76,463L811.88,465L805.267,472.014L803.966,473L803.966,473.393L798.68,479L795.16,482L788.12,485L779.32,493L760.84,493L760.84,489L767,485L773.16,482L775.8,482L776.165,478L775.394,475L773.16,475L771.4,481L761.72,480L769.64,469L812.194,452.051L855,459L886.446,473L899,473L899,485.8L898.12,499L898.756,499.5Z" style="fill:rgb(0,0,15);"/>
                    </g>
                    <g transform="matrix(1.13636,0,0,1,-122.591,0)">
                        <path d="M899,485.8L899,497L898.756,499.5L898.12,499L899,485.8Z" style="fill:rgb(0,0,15);"/>
                    </g>
                    <g transform="matrix(1.13636,0,0,1,-122.591,0)">
                        <path d="M841.248,466.536L843.56,467L850.32,471.481L841.248,466.536Z" style="fill:rgb(0,0,15);"/>
                    </g>
                    <g transform="matrix(1.13636,0,0,1,-122.591,0)">
                        <path d="M803.966,473.393L803.966,473L805.267,472.014L803.966,473.393Z" style="fill:rgb(0,0,15);"/>
                    </g>
                </g>
            </g>
        </g>
    </g>
</svg>
